<svg xmlns="http://www.w3.org/2000/svg" xmlns:xlink="http://www.w3.org/1999/xlink" width="6912" zoomAndPan="magnify" viewBox="0 0 5184 1439.999935" height="1920" preserveAspectRatio="xMidYMid meet" version="1.0"><defs><g/><clipPath id="c9b12351b2"><path d="M 144 251 L 958.5 251 L 958.5 1189 L 144 1189 Z M 144 251 " clip-rule="nonzero"/></clipPath></defs><g clip-path="url(#c9b12351b2)"><path fill="#c6a264" d="M 379.070312 1054.796875 C 373.199219 1030.484375 370.683594 1005.335938 371.242188 979.625 C 371.804688 954.472656 375.4375 929.042969 381.585938 904.171875 C 385.777344 886.84375 391.089844 869.519531 397.519531 852.75 C 386.058594 857.222656 374.320312 861.414062 362.578125 865.046875 C 341.894531 871.472656 321.210938 875.945312 300.808594 877.902344 C 281.242188 879.859375 261.675781 879.019531 242.949219 875.667969 C 239.59375 867.28125 236.519531 858.621094 233.722656 850.234375 C 254.128906 855.824219 276.488281 857.5 298.851562 855.265625 C 317.578125 853.589844 336.863281 849.117188 355.871094 843.25 C 375.15625 837.378906 394.722656 829.554688 414.007812 820.890625 L 441.402344 808.597656 L 429.101562 835.984375 C 418.480469 859.738281 409.816406 884.609375 403.667969 909.480469 C 398.078125 932.953125 394.722656 956.707031 394.164062 980.183594 C 393.605469 1004.773438 396.398438 1029.367188 402.269531 1052.84375 C 403.667969 1058.710938 405.34375 1064.578125 407.300781 1070.167969 C 397.519531 1065.417969 388.292969 1060.386719 379.628906 1054.519531 Z M 551.25 290.484375 L 521.902344 332.121094 L 516.03125 340.785156 L 507.085938 335.476562 L 490.875 325.972656 L 512.957031 382.425781 C 517.429688 381.027344 521.621094 379.910156 526.375 379.070312 C 534.480469 377.394531 542.863281 376.835938 551.25 376.835938 C 559.636719 376.835938 568.019531 377.671875 576.125 379.070312 C 580.597656 379.910156 585.070312 381.027344 589.542969 382.425781 L 611.625 325.972656 L 595.414062 335.476562 L 586.46875 340.785156 L 580.597656 332.121094 Z M 509.324219 310.601562 L 542.027344 264.492188 L 551.25 251.359375 L 560.472656 264.492188 L 593.175781 310.601562 L 628.675781 289.644531 L 656.90625 273.15625 L 644.886719 303.617188 L 606.59375 400.867188 L 602.402344 411.488281 L 591.78125 407.296875 C 585.351562 404.78125 578.640625 402.824219 571.933594 401.425781 C 565.226562 400.308594 558.238281 399.472656 550.96875 399.472656 C 543.703125 399.472656 536.714844 400.03125 530.007812 401.425781 C 523.296875 402.824219 516.589844 404.78125 510.160156 407.296875 L 499.539062 411.488281 L 495.347656 400.867188 L 457.054688 303.617188 L 445.035156 273.15625 L 473.265625 289.644531 L 508.765625 310.601562 Z M 492.550781 879.578125 C 511.839844 877.902344 531.40625 877.0625 551.25 877.0625 C 571.09375 877.0625 590.660156 877.902344 609.949219 879.578125 C 620.289062 905.007812 627.558594 931 630.910156 956.148438 C 604.917969 952.796875 578.363281 951.121094 551.25 951.121094 C 524.136719 951.121094 497.582031 952.796875 471.589844 956.148438 C 474.941406 931.277344 482.210938 905.289062 492.550781 879.578125 Z M 599.328125 856.105469 C 583.394531 854.984375 567.460938 854.425781 551.25 854.425781 C 535.039062 854.425781 519.105469 854.988281 503.175781 856.105469 C 515.75 830.394531 531.40625 805.523438 549.574219 782.886719 L 551.25 785.121094 L 552.925781 782.886719 C 571.09375 805.523438 586.75 830.394531 599.328125 856.105469 Z M 469.632812 979.34375 C 496.1875 975.710938 523.578125 973.753906 551.25 973.753906 C 578.921875 973.753906 606.035156 975.710938 632.867188 979.34375 L 632.867188 982.140625 C 633.425781 1004.496094 630.351562 1027.96875 621.964844 1052.28125 C 598.765625 1049.210938 575.289062 1047.53125 551.25 1047.53125 C 527.210938 1047.53125 503.734375 1049.210938 480.535156 1052.28125 C 472.148438 1027.96875 469.074219 1004.214844 469.632812 982.140625 Z M 489.199219 1074.082031 C 509.601562 1071.566406 530.007812 1070.167969 551.25 1070.167969 C 572.214844 1070.167969 592.898438 1071.566406 613.300781 1074.082031 C 611.34375 1078.273438 609.109375 1082.464844 606.875 1086.65625 C 594.015625 1110.132812 576.125 1134.164062 551.25 1158.199219 C 526.375 1134.164062 508.484375 1110.132812 495.628906 1086.65625 C 493.390625 1082.464844 491.15625 1078.273438 489.199219 1074.082031 Z M 551.25 442.226562 C 535.597656 442.226562 519.945312 448.097656 507.925781 459.832031 L 507.367188 460.390625 C 495.347656 472.410156 489.199219 488.339844 489.199219 504.265625 C 489.199219 520.195312 495.347656 536.125 507.367188 548.140625 C 517.988281 558.761719 533.082031 570.21875 551.25 581.675781 C 569.140625 570.21875 584.511719 558.761719 595.132812 548.140625 C 607.152344 536.125 613.300781 520.195312 613.300781 504.265625 C 613.300781 488.339844 607.152344 472.410156 595.132812 460.390625 L 594.574219 459.832031 C 582.554688 448.097656 566.902344 442.226562 551.25 442.226562 Z M 530.007812 594.53125 C 514.632812 584.191406 501.21875 573.851562 491.433594 564.070312 C 474.941406 547.582031 466.835938 525.785156 466.835938 504.265625 C 466.835938 483.027344 474.664062 462.070312 490.316406 445.582031 L 491.433594 444.464844 C 507.925781 427.976562 529.726562 419.871094 551.25 419.871094 C 573.050781 419.871094 594.574219 427.976562 611.066406 444.464844 L 612.183594 445.582031 C 627.835938 461.789062 635.664062 483.027344 635.664062 504.265625 C 635.664062 526.066406 627.558594 547.582031 611.066406 564.070312 C 601.28125 573.851562 588.144531 584.191406 572.492188 594.53125 C 578.363281 597.886719 584.511719 601.519531 590.941406 604.871094 C 599.605469 609.621094 608.550781 614.375 617.773438 619.125 L 942.007812 449.492188 L 958.5 440.832031 L 958.5 459.554688 C 958.5 488.898438 950.953125 528.859375 935.578125 567.425781 C 923.5625 597.328125 907.070312 626.949219 885.828125 650.421875 C 890.859375 655.175781 895.050781 660.484375 898.683594 665.792969 C 908.746094 680.605469 914.335938 697.652344 915.453125 714.140625 C 916.574219 730.90625 912.660156 747.675781 904.273438 762.207031 C 888.621094 788.753906 856.757812 807.199219 808.960938 802.449219 C 752.21875 797.136719 684.296875 762.765625 611.066406 719.171875 C 595.414062 732.863281 580.878906 748.234375 567.460938 764.441406 C 619.730469 827.878906 654.109375 910.320312 655.789062 981.300781 C 656.625 1017.628906 648.800781 1056.753906 626.996094 1096.996094 C 610.507812 1127.175781 586.1875 1157.917969 551.53125 1188.378906 C 516.871094 1157.917969 492.550781 1127.175781 476.0625 1096.996094 C 453.980469 1056.753906 446.433594 1017.351562 447.269531 981.300781 C 448.949219 910.320312 483.050781 827.878906 535.597656 764.441406 C 522.179688 748.234375 507.644531 733.144531 491.992188 719.171875 C 418.761719 762.765625 350.839844 797.136719 294.097656 802.449219 C 246.300781 806.917969 214.4375 788.753906 198.785156 762.207031 C 190.398438 747.953125 186.484375 731.1875 187.605469 714.140625 C 188.441406 697.371094 194.03125 680.605469 204.375 665.792969 C 208.007812 660.484375 212.480469 655.175781 217.234375 650.421875 C 195.988281 626.667969 179.5 597.328125 167.480469 567.425781 C 152.105469 528.578125 144.28125 488.898438 144.558594 459.554688 L 144.558594 440.832031 L 161.050781 449.492188 L 485.285156 619.125 C 494.507812 614.375 503.453125 609.621094 512.117188 604.871094 C 518.269531 601.519531 524.417969 597.886719 530.566406 594.53125 Z M 551.25 608.226562 C 542.027344 613.816406 532.523438 619.402344 522.460938 624.992188 C 517.988281 627.507812 513.515625 629.742188 509.042969 632.257812 L 551.25 654.335938 L 593.457031 632.257812 C 588.984375 629.742188 584.511719 627.507812 580.039062 624.992188 C 569.976562 619.402344 560.472656 613.816406 551.25 608.226562 Z M 551.25 682.839844 C 538.113281 690.945312 524.976562 699.050781 511.839844 707.152344 C 525.535156 719.730469 538.390625 733.144531 550.132812 747.394531 L 550.96875 746.558594 L 551.808594 747.394531 C 563.828125 733.144531 576.40625 719.730469 590.101562 707.152344 C 577.246094 699.328125 564.109375 691.222656 550.691406 682.839844 Z M 618.054688 644.554688 C 629.511719 650.421875 641.253906 656.011719 652.714844 661.324219 C 637.339844 670.265625 622.527344 680.324219 608.828125 691.503906 C 596.53125 684.238281 584.234375 676.691406 571.933594 668.867188 Z M 678.707031 673.058594 C 693.523438 679.765625 708.054688 685.636719 720.914062 690.945312 C 741.597656 699.050781 761.164062 702.960938 779.332031 702.683594 C 814.832031 702.683594 845.019531 688.429688 869.894531 666.632812 C 873.808594 670.542969 877.160156 674.457031 880.238281 678.648438 C 888.0625 690.105469 892.253906 702.960938 893.09375 715.535156 C 893.933594 728.113281 891.136719 740.410156 884.988281 750.75 C 873.25 770.3125 848.929688 783.726562 811.195312 780.089844 C 760.324219 775.339844 697.996094 744.042969 629.792969 703.800781 C 645.167969 692.0625 661.378906 681.722656 678.707031 672.78125 Z M 729.300781 669.707031 C 722.03125 666.910156 714.484375 663.835938 706.660156 660.484375 C 728.179688 652.101562 750.820312 645.953125 775.417969 642.597656 C 807.003906 638.128906 832.160156 642.878906 851.167969 652.9375 C 830.761719 669.425781 807.003906 680.046875 779.613281 680.046875 C 764.238281 680.046875 747.46875 676.972656 729.578125 669.707031 Z M 678.148438 647.910156 C 666.6875 642.597656 654.949219 637.289062 642.929688 631.421875 L 935.019531 478.558594 C 932.503906 502.3125 925.796875 530.816406 914.617188 559.039062 C 903.4375 587.265625 887.785156 614.652344 867.9375 636.449219 C 844.457031 621.917969 812.316406 614.375 772.066406 619.960938 C 737.964844 624.714844 706.660156 634.496094 678.148438 647.910156 Z M 723.429688 1054.796875 C 729.019531 1030.484375 731.816406 1005.335938 731.257812 979.625 C 730.695312 954.472656 727.0625 929.042969 720.914062 904.171875 C 716.722656 886.84375 711.410156 869.519531 704.980469 852.75 C 716.441406 857.222656 728.179688 861.414062 739.921875 865.046875 C 760.605469 871.472656 781.289062 875.945312 801.695312 877.902344 C 821.257812 879.859375 840.824219 879.019531 859.550781 875.667969 C 862.90625 867.28125 865.980469 858.621094 868.777344 850.234375 C 848.371094 855.824219 826.011719 857.5 803.648438 855.265625 C 784.921875 853.589844 765.636719 849.117188 746.628906 843.25 C 727.34375 837.378906 707.777344 829.554688 688.492188 820.890625 L 661.097656 808.597656 L 673.398438 835.984375 C 684.019531 859.738281 692.683594 884.609375 698.832031 909.480469 C 704.421875 932.953125 707.777344 956.707031 708.335938 980.183594 C 708.894531 1004.773438 706.101562 1029.367188 700.230469 1052.84375 C 698.832031 1058.710938 697.15625 1064.578125 695.199219 1070.167969 C 704.980469 1065.417969 714.207031 1060.386719 722.871094 1054.519531 Z M 484.726562 644.554688 C 473.265625 650.421875 461.527344 656.011719 450.066406 661.324219 C 465.441406 670.265625 480.253906 680.324219 493.949219 691.503906 C 506.25 684.238281 518.546875 676.691406 530.84375 668.867188 Z M 424.070312 673.058594 C 409.257812 679.765625 394.722656 685.636719 381.867188 690.945312 C 361.179688 699.050781 341.617188 702.960938 323.445312 702.683594 C 287.949219 702.683594 257.761719 688.429688 232.886719 666.632812 C 228.972656 670.542969 225.617188 674.457031 222.542969 678.648438 C 214.714844 690.105469 210.523438 702.960938 209.6875 715.535156 C 208.847656 728.113281 211.640625 740.410156 217.792969 750.75 C 229.53125 770.3125 253.847656 783.726562 291.582031 780.089844 C 342.453125 775.339844 405.066406 744.042969 472.988281 703.800781 C 457.613281 692.0625 441.402344 681.722656 424.070312 672.78125 Z M 373.480469 669.707031 C 380.746094 666.910156 388.292969 663.835938 396.121094 660.484375 C 374.597656 652.101562 351.957031 645.953125 327.359375 642.597656 C 295.777344 638.128906 270.621094 642.878906 251.613281 652.9375 C 272.015625 669.425781 295.777344 680.046875 323.167969 680.046875 C 338.539062 680.046875 355.3125 676.972656 373.199219 669.707031 Z M 424.628906 647.910156 C 436.089844 642.597656 447.832031 637.289062 459.847656 631.421875 L 167.757812 478.558594 C 170.273438 502.3125 176.984375 530.816406 188.164062 559.039062 C 199.34375 587.265625 214.996094 614.652344 234.839844 636.449219 C 258.320312 621.917969 290.464844 614.375 330.714844 619.960938 C 364.816406 624.714844 396.121094 634.496094 424.628906 647.910156 Z M 424.628906 647.910156 " fill-opacity="1" fill-rule="evenodd"/></g><g fill="#5b4b45" fill-opacity="1"><g transform="translate(1107.478378, 652.128322)"><g><path d="M 9.730469 0 L 85.613281 0 C 112.851562 0 165.875 -9.484375 165.875 -80.261719 C 165.875 -150.792969 112.851562 -160.523438 85.613281 -160.523438 L 9.730469 -160.523438 L 9.730469 -152.984375 C 18.484375 -152.984375 21.890625 -147.875 21.890625 -131.335938 L 21.890625 -29.1875 C 21.890625 -12.648438 18.484375 -7.539062 9.730469 -7.539062 Z M 53.507812 -12.402344 L 53.507812 -148.121094 L 79.773438 -148.121094 C 117.230469 -148.121094 134.257812 -128.90625 134.257812 -80.261719 C 134.257812 -31.617188 117.230469 -12.402344 79.773438 -12.402344 Z M 53.507812 -12.402344 "/></g></g></g><g fill="#5b4b45" fill-opacity="1"><g transform="translate(1283.081082, 652.128322)"><g><path d="M 9.730469 0 L 65.667969 0 L 65.667969 -7.539062 C 56.914062 -7.539062 53.507812 -12.648438 53.507812 -29.1875 L 53.507812 -43.777344 C 53.507812 -77.101562 69.558594 -111.636719 92.421875 -111.636719 C 105.554688 -111.636719 110.175781 -100.933594 97.042969 -70.777344 L 128.660156 -65.910156 C 139.605469 -105.3125 131.335938 -124.039062 104.097656 -124.039062 C 76.128906 -124.039062 60.316406 -102.152344 55.453125 -87.070312 L 53.507812 -87.070312 L 53.507812 -100.449219 C 53.507812 -120.148438 44.996094 -121.609375 26.023438 -121.609375 L 9.730469 -121.609375 L 9.730469 -114.070312 C 18.484375 -114.070312 21.890625 -108.960938 21.890625 -92.421875 L 21.890625 -29.1875 C 21.890625 -12.648438 18.484375 -7.539062 9.730469 -7.539062 Z M 9.730469 0 "/></g></g></g><g fill="#5b4b45" fill-opacity="1"><g transform="translate(1423.660568, 652.128322)"><g><path d="M 48.886719 2.433594 C 71.507812 2.433594 87.070312 -7.054688 94.367188 -19.457031 L 96.3125 -19.457031 L 96.558594 -13.378906 C 98.988281 -2.675781 109.449219 0 118.445312 0 C 126.960938 0 135.714844 -2.917969 140.09375 -9 L 140.09375 -18.242188 C 131.09375 -13.378906 127.933594 -16.539062 127.933594 -30.160156 L 127.933594 -64.210938 C 127.933594 -107.015625 113.097656 -124.039062 73.453125 -124.039062 C 29.914062 -124.039062 10.214844 -101.179688 17.511719 -74.425781 L 47.425781 -80.992188 C 40.132812 -99.476562 49.617188 -111.636719 69.558594 -111.636719 C 89.992188 -111.636719 94.855469 -100.933594 96.070312 -76.371094 C 61.289062 -71.507812 9.730469 -62.992188 9.730469 -27.96875 C 9.730469 -7.78125 23.105469 2.433594 48.886719 2.433594 Z M 59.832031 -9.972656 C 46.453125 -9.972656 41.347656 -16.78125 41.347656 -29.671875 C 41.347656 -49.859375 66.886719 -60.5625 96.3125 -64.210938 L 96.3125 -48.886719 C 96.3125 -28.941406 81.476562 -9.972656 59.832031 -9.972656 Z M 59.832031 -9.972656 "/></g></g></g><g fill="#5b4b45" fill-opacity="1"><g transform="translate(1568.617923, 652.128322)"><g><path d="M 26.996094 2.433594 C 37.457031 2.433594 44.265625 -5.351562 44.265625 -15.078125 C 44.265625 -24.320312 37.457031 -32.105469 26.996094 -32.105469 C 16.296875 -32.105469 9.730469 -24.320312 9.730469 -15.078125 C 9.730469 -5.351562 16.296875 2.433594 26.996094 2.433594 Z M 26.996094 2.433594 "/></g></g></g><g fill="#5b4b45" fill-opacity="1"><g transform="translate(1622.612105, 652.128322)"><g/></g></g><g fill="#5b4b45" fill-opacity="1"><g transform="translate(1674.174097, 652.128322)"><g><path d="M 9.730469 0 L 46.453125 0 L 46.453125 -7.539062 C 37.699219 -7.539062 34.292969 -12.648438 34.292969 -29.1875 L 34.292969 -132.796875 L 122.582031 -16.296875 C 133.039062 -2.433594 141.550781 0 165.875 0 L 165.875 -131.335938 C 165.875 -147.875 169.28125 -152.984375 178.035156 -152.984375 L 178.035156 -160.523438 L 141.308594 -160.523438 L 141.308594 -152.984375 C 150.066406 -152.984375 153.46875 -147.875 153.46875 -131.335938 L 153.46875 -27.726562 L 65.183594 -144.226562 C 55.453125 -156.875 47.425781 -160.039062 26.023438 -160.523438 L 9.730469 -160.523438 L 9.730469 -152.984375 C 18.484375 -152.984375 21.890625 -147.875 21.890625 -131.335938 L 21.890625 -29.1875 C 21.890625 -12.648438 18.484375 -7.539062 9.730469 -7.539062 Z M 9.730469 0 "/></g></g></g><g fill="#5b4b45" fill-opacity="1"><g transform="translate(1861.937661, 652.128322)"><g><path d="M 48.886719 2.433594 C 71.507812 2.433594 87.070312 -7.054688 94.367188 -19.457031 L 96.3125 -19.457031 L 96.558594 -13.378906 C 98.988281 -2.675781 109.449219 0 118.445312 0 C 126.960938 0 135.714844 -2.917969 140.09375 -9 L 140.09375 -18.242188 C 131.09375 -13.378906 127.933594 -16.539062 127.933594 -30.160156 L 127.933594 -64.210938 C 127.933594 -107.015625 113.097656 -124.039062 73.453125 -124.039062 C 29.914062 -124.039062 10.214844 -101.179688 17.511719 -74.425781 L 47.425781 -80.992188 C 40.132812 -99.476562 49.617188 -111.636719 69.558594 -111.636719 C 89.992188 -111.636719 94.855469 -100.933594 96.070312 -76.371094 C 61.289062 -71.507812 9.730469 -62.992188 9.730469 -27.96875 C 9.730469 -7.78125 23.105469 2.433594 48.886719 2.433594 Z M 59.832031 -9.972656 C 46.453125 -9.972656 41.347656 -16.78125 41.347656 -29.671875 C 41.347656 -49.859375 66.886719 -60.5625 96.3125 -64.210938 L 96.3125 -48.886719 C 96.3125 -28.941406 81.476562 -9.972656 59.832031 -9.972656 Z M 59.832031 -9.972656 "/></g></g></g><g fill="#5b4b45" fill-opacity="1"><g transform="translate(2006.895016, 652.128322)"><g><path d="M 68.34375 2.433594 C 88.773438 2.433594 100.207031 -5.59375 103.855469 -20.1875 L 79.773438 -24.320312 C 79.289062 -13.863281 76.371094 -9.972656 69.804688 -9.972656 C 59.589844 -9.972656 59.589844 -22.132812 59.589844 -40.132812 L 59.589844 -109.203125 L 83.667969 -109.203125 C 96.070312 -109.203125 96.070312 -113.339844 96.070312 -121.609375 L 59.589844 -121.609375 L 59.589844 -160.523438 L 37.210938 -160.523438 C 37.210938 -127.6875 29.671875 -123.3125 9.730469 -121.609375 L 9.730469 -109.203125 L 27.96875 -109.203125 L 27.96875 -36.484375 C 27.96875 -4.132812 48.398438 2.433594 68.34375 2.433594 Z M 68.34375 2.433594 "/></g></g></g><g fill="#5b4b45" fill-opacity="1"><g transform="translate(2118.045244, 652.128322)"><g><path d="M 57.640625 -138.632812 C 73.695312 -141.066406 95.828125 -152.984375 95.828125 -175.117188 L 68.585938 -170.253906 C 68.585938 -154.929688 60.5625 -148.847656 49.375 -144.472656 Z M 48.886719 2.433594 C 71.507812 2.433594 87.070312 -7.054688 94.367188 -19.457031 L 96.3125 -19.457031 L 96.558594 -13.378906 C 98.988281 -2.675781 109.449219 0 118.445312 0 C 126.960938 0 135.714844 -2.917969 140.09375 -9 L 140.09375 -18.242188 C 131.09375 -13.378906 127.933594 -16.539062 127.933594 -30.160156 L 127.933594 -64.210938 C 127.933594 -107.015625 113.097656 -124.039062 73.453125 -124.039062 C 29.914062 -124.039062 10.214844 -101.179688 17.511719 -74.425781 L 47.425781 -80.992188 C 40.132812 -99.476562 49.617188 -111.636719 69.558594 -111.636719 C 89.992188 -111.636719 94.855469 -100.933594 96.070312 -76.371094 C 61.289062 -71.507812 9.730469 -62.992188 9.730469 -27.96875 C 9.730469 -7.78125 23.105469 2.433594 48.886719 2.433594 Z M 59.832031 -9.972656 C 46.453125 -9.972656 41.347656 -16.78125 41.347656 -29.671875 C 41.347656 -49.859375 66.886719 -60.5625 96.3125 -64.210938 L 96.3125 -48.886719 C 96.3125 -28.941406 81.476562 -9.972656 59.832031 -9.972656 Z M 59.832031 -9.972656 "/></g></g></g><g fill="#5b4b45" fill-opacity="1"><g transform="translate(2263.002599, 652.128322)"><g><path d="M 9.730469 0 L 65.667969 0 L 65.667969 -7.539062 C 56.914062 -7.539062 53.507812 -12.648438 53.507812 -29.1875 L 53.507812 -153.46875 C 53.507812 -173.414062 44.996094 -175.117188 26.023438 -175.117188 L 9.730469 -175.117188 L 9.730469 -167.578125 C 18.484375 -167.578125 21.890625 -162.46875 21.890625 -145.929688 L 21.890625 -29.1875 C 21.890625 -12.648438 18.484375 -7.539062 9.730469 -7.539062 Z M 9.730469 0 "/></g></g></g><g fill="#5b4b45" fill-opacity="1"><g transform="translate(2335.967741, 652.128322)"><g><path d="M 35.023438 -135.957031 C 45.726562 -135.957031 51.804688 -141.550781 51.804688 -149.578125 C 51.804688 -157.117188 45.726562 -162.957031 35.023438 -162.957031 C 24.078125 -162.957031 18 -157.117188 18 -149.578125 C 18 -141.550781 24.078125 -135.957031 35.023438 -135.957031 Z M 9.730469 0 L 65.667969 0 L 65.667969 -7.539062 C 56.914062 -7.539062 53.507812 -12.648438 53.507812 -29.1875 L 53.507812 -100.449219 C 53.507812 -120.148438 44.996094 -121.609375 26.023438 -121.609375 L 9.730469 -121.609375 L 9.730469 -114.070312 C 18.484375 -114.070312 21.890625 -108.960938 21.890625 -92.421875 L 21.890625 -29.1875 C 21.890625 -12.648438 18.484375 -7.539062 9.730469 -7.539062 Z M 9.730469 0 "/></g></g></g><g fill="#5b4b45" fill-opacity="1"><g transform="translate(2411.364982, 652.128322)"><g><path d="M 48.886719 2.433594 C 71.507812 2.433594 87.070312 -7.054688 94.367188 -19.457031 L 96.3125 -19.457031 L 96.558594 -13.378906 C 98.988281 -2.675781 109.449219 0 118.445312 0 C 126.960938 0 135.714844 -2.917969 140.09375 -9 L 140.09375 -18.242188 C 131.09375 -13.378906 127.933594 -16.539062 127.933594 -30.160156 L 127.933594 -64.210938 C 127.933594 -107.015625 113.097656 -124.039062 73.453125 -124.039062 C 29.914062 -124.039062 10.214844 -101.179688 17.511719 -74.425781 L 47.425781 -80.992188 C 40.132812 -99.476562 49.617188 -111.636719 69.558594 -111.636719 C 89.992188 -111.636719 94.855469 -100.933594 96.070312 -76.371094 C 61.289062 -71.507812 9.730469 -62.992188 9.730469 -27.96875 C 9.730469 -7.78125 23.105469 2.433594 48.886719 2.433594 Z M 59.832031 -9.972656 C 46.453125 -9.972656 41.347656 -16.78125 41.347656 -29.671875 C 41.347656 -49.859375 66.886719 -60.5625 96.3125 -64.210938 L 96.3125 -48.886719 C 96.3125 -28.941406 81.476562 -9.972656 59.832031 -9.972656 Z M 59.832031 -9.972656 "/></g></g></g><g fill="#5b4b45" fill-opacity="1"><g transform="translate(2556.322337, 652.128322)"><g/></g></g><g fill="#5b4b45" fill-opacity="1"><g transform="translate(2607.884375, 652.128322)"><g><path d="M 9.730469 0 L 86.34375 0 C 117.230469 0 153.714844 -0.972656 153.714844 -43.292969 C 153.714844 -68.34375 139.851562 -80.503906 123.554688 -86.097656 C 137.175781 -91.9375 147.148438 -102.394531 147.148438 -121.851562 C 147.148438 -160.039062 115.527344 -160.523438 81.476562 -160.523438 L 9.730469 -160.523438 L 9.730469 -152.984375 C 18.484375 -152.984375 21.890625 -147.875 21.890625 -131.335938 L 21.890625 -29.1875 C 21.890625 -12.648438 18.484375 -7.539062 9.730469 -7.539062 Z M 53.507812 -91.691406 L 53.507812 -148.121094 L 77.34375 -148.121094 C 103.855469 -148.121094 115.527344 -144.226562 115.527344 -119.90625 C 115.527344 -95.828125 101.664062 -91.691406 76.371094 -91.691406 Z M 53.507812 -12.402344 L 53.507812 -79.53125 L 82.9375 -79.53125 C 108.230469 -79.53125 122.09375 -70.046875 122.09375 -45.726562 C 122.09375 -21.402344 110.421875 -12.402344 83.667969 -12.402344 Z M 53.507812 -12.402344 "/></g></g></g><g fill="#5b4b45" fill-opacity="1"><g transform="translate(2771.326318, 652.128322)"><g><path d="M 35.023438 -135.957031 C 45.726562 -135.957031 51.804688 -141.550781 51.804688 -149.578125 C 51.804688 -157.117188 45.726562 -162.957031 35.023438 -162.957031 C 24.078125 -162.957031 18 -157.117188 18 -149.578125 C 18 -141.550781 24.078125 -135.957031 35.023438 -135.957031 Z M 9.730469 0 L 65.667969 0 L 65.667969 -7.539062 C 56.914062 -7.539062 53.507812 -12.648438 53.507812 -29.1875 L 53.507812 -100.449219 C 53.507812 -120.148438 44.996094 -121.609375 26.023438 -121.609375 L 9.730469 -121.609375 L 9.730469 -114.070312 C 18.484375 -114.070312 21.890625 -108.960938 21.890625 -92.421875 L 21.890625 -29.1875 C 21.890625 -12.648438 18.484375 -7.539062 9.730469 -7.539062 Z M 9.730469 0 "/></g></g></g><g fill="#5b4b45" fill-opacity="1"><g transform="translate(2846.72365, 652.128322)"><g><path d="M 68.34375 2.433594 C 88.773438 2.433594 100.207031 -5.59375 103.855469 -20.1875 L 79.773438 -24.320312 C 79.289062 -13.863281 76.371094 -9.972656 69.804688 -9.972656 C 59.589844 -9.972656 59.589844 -22.132812 59.589844 -40.132812 L 59.589844 -109.203125 L 83.667969 -109.203125 C 96.070312 -109.203125 96.070312 -113.339844 96.070312 -121.609375 L 59.589844 -121.609375 L 59.589844 -160.523438 L 37.210938 -160.523438 C 37.210938 -127.6875 29.671875 -123.3125 9.730469 -121.609375 L 9.730469 -109.203125 L 27.96875 -109.203125 L 27.96875 -36.484375 C 27.96875 -4.132812 48.398438 2.433594 68.34375 2.433594 Z M 68.34375 2.433594 "/></g></g></g><g fill="#5b4b45" fill-opacity="1"><g transform="translate(2957.873787, 652.128322)"><g><path d="M 68.34375 2.433594 C 88.773438 2.433594 100.207031 -5.59375 103.855469 -20.1875 L 79.773438 -24.320312 C 79.289062 -13.863281 76.371094 -9.972656 69.804688 -9.972656 C 59.589844 -9.972656 59.589844 -22.132812 59.589844 -40.132812 L 59.589844 -109.203125 L 83.667969 -109.203125 C 96.070312 -109.203125 96.070312 -113.339844 96.070312 -121.609375 L 59.589844 -121.609375 L 59.589844 -160.523438 L 37.210938 -160.523438 C 37.210938 -127.6875 29.671875 -123.3125 9.730469 -121.609375 L 9.730469 -109.203125 L 27.96875 -109.203125 L 27.96875 -36.484375 C 27.96875 -4.132812 48.398438 2.433594 68.34375 2.433594 Z M 68.34375 2.433594 "/></g></g></g><g fill="#5b4b45" fill-opacity="1"><g transform="translate(3069.023923, 652.128322)"><g><path d="M 74.910156 2.433594 C 110.90625 2.433594 129.636719 -19.457031 127.203125 -45.96875 L 95.585938 -39.402344 C 98.746094 -16.296875 87.558594 -9.972656 73.9375 -9.972656 C 52.535156 -9.972656 41.832031 -29.1875 41.347656 -53.019531 L 41.347656 -55.453125 C 74.910156 -46.941406 126.960938 -51.804688 126.960938 -89.019531 C 126.960938 -111.394531 106.773438 -124.039062 77.34375 -124.039062 C 37.457031 -124.039062 9.730469 -99.476562 9.730469 -58.128906 C 9.730469 -24.078125 28.941406 2.433594 74.910156 2.433594 Z M 41.832031 -67.859375 C 43.535156 -95.585938 52.777344 -111.636719 73.453125 -111.636719 C 88.773438 -111.636719 95.339844 -103.367188 95.339844 -88.773438 C 95.339844 -69.558594 75.882812 -59.832031 41.832031 -67.859375 Z M 41.832031 -67.859375 "/></g></g></g><g fill="#5b4b45" fill-opacity="1"><g transform="translate(3206.198289, 652.128322)"><g><path d="M 9.730469 0 L 65.667969 0 L 65.667969 -7.539062 C 56.914062 -7.539062 53.507812 -12.648438 53.507812 -29.1875 L 53.507812 -43.777344 C 53.507812 -77.101562 63.480469 -111.636719 91.207031 -111.636719 C 105.800781 -111.636719 110.90625 -101.421875 110.90625 -85.371094 L 110.90625 -29.1875 C 110.90625 -12.648438 107.503906 -7.539062 98.746094 -7.539062 L 98.746094 0 L 154.6875 0 L 154.6875 -7.539062 C 146.171875 -7.539062 142.527344 -12.648438 142.527344 -29.1875 L 142.527344 -76.128906 C 142.527344 -107.746094 126.472656 -124.039062 101.179688 -124.039062 C 74.667969 -124.039062 61.046875 -108.71875 55.453125 -87.800781 L 53.507812 -87.800781 L 53.507812 -100.449219 C 53.507812 -120.148438 44.996094 -121.609375 26.023438 -121.609375 L 9.730469 -121.609375 L 9.730469 -114.070312 C 18.484375 -114.070312 21.890625 -108.960938 21.890625 -92.421875 L 21.890625 -29.1875 C 21.890625 -12.648438 18.484375 -7.539062 9.730469 -7.539062 Z M 9.730469 0 "/></g></g></g><g fill="#5b4b45" fill-opacity="1"><g transform="translate(3370.613072, 652.128322)"><g><path d="M 75.882812 2.433594 C 116.015625 2.433594 139.121094 -19.699219 137.417969 -53.507812 L 105.800781 -48.644531 C 108.71875 -21.402344 93.882812 -9.972656 75.882812 -9.972656 C 50.589844 -9.972656 41.347656 -28.941406 41.347656 -60.804688 C 41.347656 -92.664062 50.589844 -111.636719 75.882812 -111.636719 C 93.882812 -111.636719 105.3125 -100.207031 103.367188 -75.398438 L 134.984375 -70.53125 C 135.714844 -101.90625 116.257812 -124.039062 76.371094 -124.039062 C 28.214844 -124.039062 9.730469 -93.640625 9.730469 -60.804688 C 9.730469 -27.96875 27.96875 2.433594 75.882812 2.433594 Z M 75.882812 2.433594 "/></g></g></g><g fill="#5b4b45" fill-opacity="1"><g transform="translate(3517.759362, 652.128322)"><g><path d="M 75.882812 2.433594 C 121.851562 2.433594 141.796875 -28.214844 141.796875 -60.804688 C 141.796875 -93.394531 121.851562 -124.039062 75.882812 -124.039062 C 29.671875 -124.039062 9.730469 -93.394531 9.730469 -60.804688 C 9.730469 -28.214844 29.671875 2.433594 75.882812 2.433594 Z M 81.722656 -10.214844 C 57.398438 -7.78125 44.996094 -25.539062 41.589844 -57.398438 C 38.183594 -89.261719 46.941406 -108.960938 69.804688 -111.394531 C 94.125 -113.824219 106.527344 -96.070312 109.933594 -64.210938 C 113.339844 -32.347656 104.582031 -12.648438 81.722656 -10.214844 Z M 81.722656 -10.214844 "/></g></g></g><g fill="#5b4b45" fill-opacity="1"><g transform="translate(3669.283521, 652.128322)"><g><path d="M 63.480469 2.433594 C 89.746094 2.433594 103.367188 -12.890625 108.960938 -33.808594 L 110.90625 -33.808594 L 110.90625 -21.160156 C 110.90625 -1.460938 119.417969 0 138.390625 0 L 154.6875 0 L 154.6875 -7.539062 C 146.171875 -7.539062 142.527344 -12.648438 142.527344 -29.1875 L 142.527344 -92.421875 C 142.527344 -108.960938 146.171875 -114.070312 154.6875 -114.070312 L 154.6875 -121.609375 L 98.746094 -121.609375 L 98.746094 -114.070312 C 107.503906 -114.070312 110.90625 -108.960938 110.90625 -92.421875 L 110.90625 -77.828125 C 110.90625 -44.507812 100.933594 -9.972656 73.207031 -9.972656 C 58.859375 -9.972656 53.507812 -20.1875 53.507812 -36.238281 L 53.507812 -92.421875 C 53.507812 -108.960938 56.914062 -114.070312 65.667969 -114.070312 L 65.667969 -121.609375 L 9.730469 -121.609375 L 9.730469 -114.070312 C 18.484375 -114.070312 21.890625 -108.960938 21.890625 -92.421875 L 21.890625 -45.480469 C 21.890625 -13.863281 38.183594 2.433594 63.480469 2.433594 Z M 63.480469 2.433594 "/></g></g></g><g fill="#5b4b45" fill-opacity="1"><g transform="translate(3833.698304, 652.128322)"><g><path d="M 9.730469 0 L 65.667969 0 L 65.667969 -7.539062 C 56.914062 -7.539062 53.507812 -12.648438 53.507812 -29.1875 L 53.507812 -43.777344 C 53.507812 -77.101562 69.558594 -111.636719 92.421875 -111.636719 C 105.554688 -111.636719 110.175781 -100.933594 97.042969 -70.777344 L 128.660156 -65.910156 C 139.605469 -105.3125 131.335938 -124.039062 104.097656 -124.039062 C 76.128906 -124.039062 60.316406 -102.152344 55.453125 -87.070312 L 53.507812 -87.070312 L 53.507812 -100.449219 C 53.507812 -120.148438 44.996094 -121.609375 26.023438 -121.609375 L 9.730469 -121.609375 L 9.730469 -114.070312 C 18.484375 -114.070312 21.890625 -108.960938 21.890625 -92.421875 L 21.890625 -29.1875 C 21.890625 -12.648438 18.484375 -7.539062 9.730469 -7.539062 Z M 9.730469 0 "/></g></g></g><g fill="#5b4b45" fill-opacity="1"><g transform="translate(3974.2777, 652.128322)"><g><path d="M 68.34375 2.433594 C 88.773438 2.433594 100.207031 -5.59375 103.855469 -20.1875 L 79.773438 -24.320312 C 79.289062 -13.863281 76.371094 -9.972656 69.804688 -9.972656 C 59.589844 -9.972656 59.589844 -22.132812 59.589844 -40.132812 L 59.589844 -109.203125 L 83.667969 -109.203125 C 96.070312 -109.203125 96.070312 -113.339844 96.070312 -121.609375 L 59.589844 -121.609375 L 59.589844 -160.523438 L 37.210938 -160.523438 C 37.210938 -127.6875 29.671875 -123.3125 9.730469 -121.609375 L 9.730469 -109.203125 L 27.96875 -109.203125 L 27.96875 -36.484375 C 27.96875 -4.132812 48.398438 2.433594 68.34375 2.433594 Z M 68.34375 2.433594 "/></g></g></g><g fill="#5b4b45" fill-opacity="1"><g transform="translate(4085.427836, 652.128322)"><g/></g></g><g fill="#5b4b45" fill-opacity="1"><g transform="translate(4136.989783, 652.128322)"><g><path d="M 66.15625 2.433594 C 86.097656 2.433594 103.609375 -6.566406 113.582031 -23.105469 L 115.527344 -23.105469 L 115.527344 -17.269531 C 115.527344 -1.460938 124.039062 0 143.011719 0 L 159.308594 0 L 159.308594 -7.539062 C 150.792969 -7.539062 147.148438 -12.648438 147.148438 -29.1875 L 147.148438 -153.46875 C 147.148438 -173.414062 138.878906 -175.117188 119.664062 -175.117188 L 103.367188 -175.117188 L 103.367188 -167.578125 C 112.125 -167.578125 115.527344 -162.46875 115.527344 -145.929688 L 115.527344 -98.503906 L 113.582031 -98.503906 C 103.609375 -115.042969 86.097656 -124.039062 66.15625 -124.039062 C 35.507812 -124.039062 9.730469 -102.394531 9.730469 -60.804688 C 9.730469 -19.214844 35.507812 2.433594 66.15625 2.433594 Z M 77.101562 -9.972656 C 54.238281 -9.972656 43.050781 -28.699219 43.050781 -60.804688 C 43.050781 -92.910156 54.238281 -111.636719 77.101562 -111.636719 C 101.179688 -111.636719 113.582031 -92.179688 113.582031 -60.804688 C 113.582031 -29.429688 101.179688 -9.972656 77.101562 -9.972656 Z M 77.101562 -9.972656 "/></g></g></g><g fill="#5b4b45" fill-opacity="1"><g transform="translate(4303.593591, 652.128322)"><g><path d="M 48.886719 2.433594 C 71.507812 2.433594 87.070312 -7.054688 94.367188 -19.457031 L 96.3125 -19.457031 L 96.558594 -13.378906 C 98.988281 -2.675781 109.449219 0 118.445312 0 C 126.960938 0 135.714844 -2.917969 140.09375 -9 L 140.09375 -18.242188 C 131.09375 -13.378906 127.933594 -16.539062 127.933594 -30.160156 L 127.933594 -64.210938 C 127.933594 -107.015625 113.097656 -124.039062 73.453125 -124.039062 C 29.914062 -124.039062 10.214844 -101.179688 17.511719 -74.425781 L 47.425781 -80.992188 C 40.132812 -99.476562 49.617188 -111.636719 69.558594 -111.636719 C 89.992188 -111.636719 94.855469 -100.933594 96.070312 -76.371094 C 61.289062 -71.507812 9.730469 -62.992188 9.730469 -27.96875 C 9.730469 -7.78125 23.105469 2.433594 48.886719 2.433594 Z M 59.832031 -9.972656 C 46.453125 -9.972656 41.347656 -16.78125 41.347656 -29.671875 C 41.347656 -49.859375 66.886719 -60.5625 96.3125 -64.210938 L 96.3125 -48.886719 C 96.3125 -28.941406 81.476562 -9.972656 59.832031 -9.972656 Z M 59.832031 -9.972656 "/></g></g></g><g fill="#5b4b45" fill-opacity="1"><g transform="translate(4448.550856, 652.128322)"><g/></g></g><g fill="#5b4b45" fill-opacity="1"><g transform="translate(4500.112985, 652.128322)"><g><path d="M 85.855469 2.433594 C 122.09375 2.433594 153.46875 -8.027344 153.46875 -43.050781 C 153.46875 -78.316406 119.175781 -85.613281 83.910156 -97.53125 C 63.964844 -104.097656 46.941406 -109.933594 46.941406 -126.230469 C 46.941406 -141.550781 57.398438 -150.550781 81.722656 -150.550781 C 109.449219 -150.550781 125.742188 -140.578125 113.339844 -110.421875 L 144.957031 -105.554688 C 157.605469 -148.121094 119.417969 -162.957031 81.476562 -162.957031 C 44.507812 -162.957031 15.324219 -150.550781 15.324219 -120.148438 C 15.324219 -88.289062 45.96875 -79.53125 77.101562 -68.832031 C 101.90625 -60.316406 121.851562 -56.667969 121.851562 -36.484375 C 121.851562 -19.945312 112.125 -9.972656 86.34375 -9.972656 C 56.914062 -9.972656 30.886719 -18.972656 43.535156 -59.589844 L 11.917969 -64.453125 C -0.730469 -11.675781 44.265625 2.433594 85.855469 2.433594 Z M 85.855469 2.433594 "/></g></g></g><g fill="#5b4b45" fill-opacity="1"><g transform="translate(4660.879574, 652.128322)"><g><path d="M 35.023438 -135.957031 C 45.726562 -135.957031 51.804688 -141.550781 51.804688 -149.578125 C 51.804688 -157.117188 45.726562 -162.957031 35.023438 -162.957031 C 24.078125 -162.957031 18 -157.117188 18 -149.578125 C 18 -141.550781 24.078125 -135.957031 35.023438 -135.957031 Z M 9.730469 0 L 65.667969 0 L 65.667969 -7.539062 C 56.914062 -7.539062 53.507812 -12.648438 53.507812 -29.1875 L 53.507812 -100.449219 C 53.507812 -120.148438 44.996094 -121.609375 26.023438 -121.609375 L 9.730469 -121.609375 L 9.730469 -114.070312 C 18.484375 -114.070312 21.890625 -108.960938 21.890625 -92.421875 L 21.890625 -29.1875 C 21.890625 -12.648438 18.484375 -7.539062 9.730469 -7.539062 Z M 9.730469 0 "/></g></g></g><g fill="#5b4b45" fill-opacity="1"><g transform="translate(4736.276906, 652.128322)"><g><path d="M 9.730469 0 L 65.667969 0 L 65.667969 -7.539062 C 56.914062 -7.539062 53.507812 -12.648438 53.507812 -29.1875 L 53.507812 -153.46875 C 53.507812 -173.414062 44.996094 -175.117188 26.023438 -175.117188 L 9.730469 -175.117188 L 9.730469 -167.578125 C 18.484375 -167.578125 21.890625 -162.46875 21.890625 -145.929688 L 21.890625 -29.1875 C 21.890625 -12.648438 18.484375 -7.539062 9.730469 -7.539062 Z M 9.730469 0 "/></g></g></g><g fill="#5b4b45" fill-opacity="1"><g transform="translate(4809.241866, 652.128322)"><g><path d="M 68.101562 0 L 102.636719 0 L 142.527344 -94.613281 C 148.847656 -109.933594 157.363281 -114.070312 166.117188 -114.070312 L 166.117188 -121.609375 L 116.746094 -121.609375 L 116.746094 -114.070312 C 133.28125 -114.070312 135.472656 -109.933594 129.148438 -94.613281 L 95.828125 -15.324219 L 60.804688 -94.855469 C 53.75 -109.933594 55.695312 -114.070312 72.480469 -114.070312 L 72.480469 -121.609375 L 2.433594 -121.609375 L 2.433594 -114.070312 C 10.945312 -114.070312 19.214844 -110.175781 26.023438 -94.855469 Z M 68.101562 0 "/></g></g></g><g fill="#5b4b45" fill-opacity="1"><g transform="translate(4977.791166, 652.128322)"><g><path d="M 48.886719 2.433594 C 71.507812 2.433594 87.070312 -7.054688 94.367188 -19.457031 L 96.3125 -19.457031 L 96.558594 -13.378906 C 98.988281 -2.675781 109.449219 0 118.445312 0 C 126.960938 0 135.714844 -2.917969 140.09375 -9 L 140.09375 -18.242188 C 131.09375 -13.378906 127.933594 -16.539062 127.933594 -30.160156 L 127.933594 -64.210938 C 127.933594 -107.015625 113.097656 -124.039062 73.453125 -124.039062 C 29.914062 -124.039062 10.214844 -101.179688 17.511719 -74.425781 L 47.425781 -80.992188 C 40.132812 -99.476562 49.617188 -111.636719 69.558594 -111.636719 C 89.992188 -111.636719 94.855469 -100.933594 96.070312 -76.371094 C 61.289062 -71.507812 9.730469 -62.992188 9.730469 -27.96875 C 9.730469 -7.78125 23.105469 2.433594 48.886719 2.433594 Z M 59.832031 -9.972656 C 46.453125 -9.972656 41.347656 -16.78125 41.347656 -29.671875 C 41.347656 -49.859375 66.886719 -60.5625 96.3125 -64.210938 L 96.3125 -48.886719 C 96.3125 -28.941406 81.476562 -9.972656 59.832031 -9.972656 Z M 59.832031 -9.972656 "/></g></g></g><g fill="#5b4b45" fill-opacity="1"><g transform="translate(1315.147383, 957.428441)"><g><path d="M 83.34375 -31.71875 C 83.34375 -21.195312 79.523438 -13.003906 71.890625 -7.140625 C 64.253906 -1.273438 53.960938 1.65625 41.015625 1.65625 C 34.367188 1.65625 28.222656 1.15625 22.578125 0.15625 C 16.929688 -0.832031 12.226562 -2.210938 8.46875 -3.984375 L 8.46875 -18.265625 C 12.445312 -16.492188 17.394531 -14.890625 23.3125 -13.453125 C 29.238281 -12.015625 35.359375 -11.296875 41.671875 -11.296875 C 50.421875 -11.296875 57.0625 -13.007812 61.59375 -16.4375 C 66.132812 -19.863281 68.40625 -24.515625 68.40625 -30.390625 C 68.40625 -34.253906 67.570312 -37.515625 65.90625 -40.171875 C 64.25 -42.835938 61.375 -45.273438 57.28125 -47.484375 C 53.1875 -49.703125 47.597656 -52.140625 40.515625 -54.796875 C 30.328125 -58.441406 22.6875 -62.921875 17.59375 -68.234375 C 12.507812 -73.546875 9.96875 -80.796875 9.96875 -89.984375 C 9.96875 -96.179688 11.570312 -101.550781 14.78125 -106.09375 C 17.988281 -110.632812 22.414062 -114.117188 28.0625 -116.546875 C 33.707031 -118.984375 40.289062 -120.203125 47.8125 -120.203125 C 54.238281 -120.203125 60.160156 -119.59375 65.578125 -118.375 C 71.003906 -117.15625 75.988281 -115.550781 80.53125 -113.5625 L 75.875 -100.78125 C 71.78125 -102.550781 67.296875 -104.046875 62.421875 -105.265625 C 57.554688 -106.484375 52.578125 -107.09375 47.484375 -107.09375 C 40.066406 -107.09375 34.476562 -105.515625 30.71875 -102.359375 C 26.957031 -99.203125 25.078125 -95.023438 25.078125 -89.828125 C 25.078125 -85.835938 25.90625 -82.515625 27.5625 -79.859375 C 29.21875 -77.203125 31.925781 -74.796875 35.6875 -72.640625 C 39.457031 -70.484375 44.550781 -68.242188 50.96875 -65.921875 C 57.945312 -63.367188 63.84375 -60.625 68.65625 -57.6875 C 73.46875 -54.757812 77.117188 -51.25 79.609375 -47.15625 C 82.097656 -43.0625 83.34375 -37.914062 83.34375 -31.71875 Z M 83.34375 -31.71875 "/></g></g></g><g fill="#5b4b45" fill-opacity="1"><g transform="translate(1406.29215, 957.428441)"><g><path d="M 47.8125 -90.484375 C 58.664062 -90.484375 66.691406 -88.101562 71.890625 -83.34375 C 77.085938 -78.582031 79.6875 -71 79.6875 -60.59375 L 79.6875 0 L 69.0625 0 L 66.25 -12.625 L 65.578125 -12.625 C 61.703125 -7.75 57.609375 -4.148438 53.296875 -1.828125 C 48.984375 0.492188 43.117188 1.65625 35.703125 1.65625 C 27.617188 1.65625 20.921875 -0.472656 15.609375 -4.734375 C 10.296875 -8.992188 7.640625 -15.660156 7.640625 -24.734375 C 7.640625 -33.585938 11.125 -40.421875 18.09375 -45.234375 C 25.070312 -50.054688 35.8125 -52.6875 50.3125 -53.125 L 65.421875 -53.625 L 65.421875 -58.9375 C 65.421875 -66.351562 63.8125 -71.5 60.59375 -74.375 C 57.382812 -77.257812 52.847656 -78.703125 46.984375 -78.703125 C 42.335938 -78.703125 37.910156 -78.007812 33.703125 -76.625 C 29.492188 -75.238281 25.566406 -73.660156 21.921875 -71.890625 L 17.4375 -82.84375 C 21.3125 -84.945312 25.90625 -86.742188 31.21875 -88.234375 C 36.53125 -89.734375 42.0625 -90.484375 47.8125 -90.484375 Z M 65.25 -43.5 L 52.140625 -43 C 41.066406 -42.5625 33.398438 -40.789062 29.140625 -37.6875 C 24.878906 -34.59375 22.75 -30.222656 22.75 -24.578125 C 22.75 -19.585938 24.269531 -15.929688 27.3125 -13.609375 C 30.351562 -11.285156 34.253906 -10.125 39.015625 -10.125 C 46.429688 -10.125 52.65625 -12.195312 57.6875 -16.34375 C 62.726562 -20.5 65.25 -26.894531 65.25 -35.53125 Z M 65.25 -43.5 "/></g></g></g><g fill="#5b4b45" fill-opacity="1"><g transform="translate(1499.429151, 957.428441)"><g><path d="M 88.5 -89 L 88.5 0 L 76.546875 0 L 74.375 -11.78125 L 73.71875 -11.78125 C 70.84375 -7.132812 66.859375 -3.734375 61.765625 -1.578125 C 56.671875 0.578125 51.25 1.65625 45.5 1.65625 C 34.757812 1.65625 26.675781 -0.914062 21.25 -6.0625 C 15.820312 -11.207031 13.109375 -19.425781 13.109375 -30.71875 L 13.109375 -89 L 27.890625 -89 L 27.890625 -31.71875 C 27.890625 -17.539062 34.476562 -10.453125 47.65625 -10.453125 C 57.5 -10.453125 64.332031 -13.21875 68.15625 -18.75 C 71.976562 -24.289062 73.890625 -32.265625 73.890625 -42.671875 L 73.890625 -89 Z M 74.71875 -127.1875 L 74.71875 -125.515625 C 73.28125 -123.523438 71.203125 -120.953125 68.484375 -117.796875 C 65.773438 -114.640625 62.84375 -111.484375 59.6875 -108.328125 C 56.53125 -105.179688 53.625 -102.609375 50.96875 -100.609375 L 41.34375 -100.609375 L 41.34375 -102.609375 C 42.894531 -104.597656 44.664062 -107.054688 46.65625 -109.984375 C 48.644531 -112.921875 50.582031 -115.910156 52.46875 -118.953125 C 54.351562 -122.003906 55.90625 -124.75 57.125 -127.1875 Z M 74.71875 -127.1875 "/></g></g></g><g fill="#5b4b45" fill-opacity="1"><g transform="translate(1602.02927, 957.428441)"><g><path d="M 45.65625 1.65625 C 34.59375 1.65625 25.738281 -2.1875 19.09375 -9.875 C 12.445312 -17.570312 9.125 -29.054688 9.125 -44.328125 C 9.125 -59.609375 12.472656 -71.148438 19.171875 -78.953125 C 25.867188 -86.753906 34.753906 -90.65625 45.828125 -90.65625 C 52.691406 -90.65625 58.304688 -89.378906 62.671875 -86.828125 C 67.046875 -84.285156 70.617188 -81.1875 73.390625 -77.53125 L 74.375 -77.53125 C 74.15625 -78.96875 73.9375 -81.097656 73.71875 -83.921875 C 73.5 -86.742188 73.390625 -88.988281 73.390625 -90.65625 L 73.390625 -126.1875 L 88 -126.1875 L 88 0 L 76.203125 0 L 74.046875 -11.953125 L 73.390625 -11.953125 C 70.734375 -8.191406 67.191406 -4.984375 62.765625 -2.328125 C 58.335938 0.328125 52.632812 1.65625 45.65625 1.65625 Z M 47.984375 -10.453125 C 57.390625 -10.453125 64 -13.023438 67.8125 -18.171875 C 71.632812 -23.328125 73.546875 -31.109375 73.546875 -41.515625 L 73.546875 -44.171875 C 73.546875 -55.234375 71.71875 -63.722656 68.0625 -69.640625 C 64.414062 -75.566406 57.664062 -78.53125 47.8125 -78.53125 C 39.957031 -78.53125 34.0625 -75.398438 30.125 -69.140625 C 26.195312 -62.890625 24.234375 -54.507812 24.234375 -44 C 24.234375 -33.375 26.195312 -25.125 30.125 -19.25 C 34.0625 -13.382812 40.015625 -10.453125 47.984375 -10.453125 Z M 47.984375 -10.453125 "/></g></g></g><g fill="#5b4b45" fill-opacity="1"><g transform="translate(1704.131342, 957.428441)"><g><path d="M 48.484375 -90.65625 C 56.003906 -90.65625 62.53125 -88.992188 68.0625 -85.671875 C 73.601562 -82.347656 77.835938 -77.671875 80.765625 -71.640625 C 83.703125 -65.609375 85.171875 -58.550781 85.171875 -50.46875 L 85.171875 -41.671875 L 24.234375 -41.671875 C 24.460938 -31.597656 27.035156 -23.929688 31.953125 -18.671875 C 36.878906 -13.421875 43.769531 -10.796875 52.625 -10.796875 C 58.269531 -10.796875 63.28125 -11.320312 67.65625 -12.375 C 72.03125 -13.425781 76.539062 -14.945312 81.1875 -16.9375 L 81.1875 -4.15625 C 76.644531 -2.15625 72.160156 -0.6875 67.734375 0.25 C 63.304688 1.1875 58.050781 1.65625 51.96875 1.65625 C 43.445312 1.65625 35.972656 -0.0546875 29.546875 -3.484375 C 23.128906 -6.921875 18.117188 -12.015625 14.515625 -18.765625 C 10.921875 -25.515625 9.125 -33.867188 9.125 -43.828125 C 9.125 -53.566406 10.753906 -61.921875 14.015625 -68.890625 C 17.285156 -75.867188 21.878906 -81.238281 27.796875 -85 C 33.722656 -88.769531 40.617188 -90.65625 48.484375 -90.65625 Z M 48.3125 -78.703125 C 41.34375 -78.703125 35.835938 -76.457031 31.796875 -71.96875 C 27.753906 -67.488281 25.347656 -61.265625 24.578125 -53.296875 L 69.90625 -53.296875 C 69.789062 -60.828125 68.015625 -66.941406 64.578125 -71.640625 C 61.148438 -76.347656 55.726562 -78.703125 48.3125 -78.703125 Z M 48.3125 -78.703125 "/></g></g></g><g fill="#5b4b45" fill-opacity="1"><g transform="translate(1797.766393, 957.428441)"><g/></g></g><g fill="#5b4b45" fill-opacity="1"><g transform="translate(1834.954788, 957.428441)"><g><path d="M 45.65625 1.65625 C 34.59375 1.65625 25.738281 -2.1875 19.09375 -9.875 C 12.445312 -17.570312 9.125 -29.054688 9.125 -44.328125 C 9.125 -59.609375 12.472656 -71.148438 19.171875 -78.953125 C 25.867188 -86.753906 34.753906 -90.65625 45.828125 -90.65625 C 52.691406 -90.65625 58.304688 -89.378906 62.671875 -86.828125 C 67.046875 -84.285156 70.617188 -81.1875 73.390625 -77.53125 L 74.375 -77.53125 C 74.15625 -78.96875 73.9375 -81.097656 73.71875 -83.921875 C 73.5 -86.742188 73.390625 -88.988281 73.390625 -90.65625 L 73.390625 -126.1875 L 88 -126.1875 L 88 0 L 76.203125 0 L 74.046875 -11.953125 L 73.390625 -11.953125 C 70.734375 -8.191406 67.191406 -4.984375 62.765625 -2.328125 C 58.335938 0.328125 52.632812 1.65625 45.65625 1.65625 Z M 47.984375 -10.453125 C 57.390625 -10.453125 64 -13.023438 67.8125 -18.171875 C 71.632812 -23.328125 73.546875 -31.109375 73.546875 -41.515625 L 73.546875 -44.171875 C 73.546875 -55.234375 71.71875 -63.722656 68.0625 -69.640625 C 64.414062 -75.566406 57.664062 -78.53125 47.8125 -78.53125 C 39.957031 -78.53125 34.0625 -75.398438 30.125 -69.140625 C 26.195312 -62.890625 24.234375 -54.507812 24.234375 -44 C 24.234375 -33.375 26.195312 -25.125 30.125 -19.25 C 34.0625 -13.382812 40.015625 -10.453125 47.984375 -10.453125 Z M 47.984375 -10.453125 "/></g></g></g><g fill="#5b4b45" fill-opacity="1"><g transform="translate(1937.05686, 957.428441)"><g><path d="M 47.8125 -90.484375 C 58.664062 -90.484375 66.691406 -88.101562 71.890625 -83.34375 C 77.085938 -78.582031 79.6875 -71 79.6875 -60.59375 L 79.6875 0 L 69.0625 0 L 66.25 -12.625 L 65.578125 -12.625 C 61.703125 -7.75 57.609375 -4.148438 53.296875 -1.828125 C 48.984375 0.492188 43.117188 1.65625 35.703125 1.65625 C 27.617188 1.65625 20.921875 -0.472656 15.609375 -4.734375 C 10.296875 -8.992188 7.640625 -15.660156 7.640625 -24.734375 C 7.640625 -33.585938 11.125 -40.421875 18.09375 -45.234375 C 25.070312 -50.054688 35.8125 -52.6875 50.3125 -53.125 L 65.421875 -53.625 L 65.421875 -58.9375 C 65.421875 -66.351562 63.8125 -71.5 60.59375 -74.375 C 57.382812 -77.257812 52.847656 -78.703125 46.984375 -78.703125 C 42.335938 -78.703125 37.910156 -78.007812 33.703125 -76.625 C 29.492188 -75.238281 25.566406 -73.660156 21.921875 -71.890625 L 17.4375 -82.84375 C 21.3125 -84.945312 25.90625 -86.742188 31.21875 -88.234375 C 36.53125 -89.734375 42.0625 -90.484375 47.8125 -90.484375 Z M 65.25 -43.5 L 52.140625 -43 C 41.066406 -42.5625 33.398438 -40.789062 29.140625 -37.6875 C 24.878906 -34.59375 22.75 -30.222656 22.75 -24.578125 C 22.75 -19.585938 24.269531 -15.929688 27.3125 -13.609375 C 30.351562 -11.285156 34.253906 -10.125 39.015625 -10.125 C 46.429688 -10.125 52.65625 -12.195312 57.6875 -16.34375 C 62.726562 -20.5 65.25 -26.894531 65.25 -35.53125 Z M 65.25 -43.5 "/></g></g></g><g fill="#5b4b45" fill-opacity="1"><g transform="translate(2030.193863, 957.428441)"><g/></g></g><g fill="#5b4b45" fill-opacity="1"><g transform="translate(2067.382258, 957.428441)"><g><path d="M 31.046875 0 L 16.109375 0 L 16.109375 -118.546875 L 82.34375 -118.546875 L 82.34375 -105.4375 L 31.046875 -105.4375 L 31.046875 -63.421875 L 79.203125 -63.421875 L 79.203125 -50.3125 L 31.046875 -50.3125 Z M 31.046875 0 "/></g></g></g><g fill="#5b4b45" fill-opacity="1"><g transform="translate(2153.546419, 957.428441)"><g><path d="M 47.8125 -90.484375 C 58.664062 -90.484375 66.691406 -88.101562 71.890625 -83.34375 C 77.085938 -78.582031 79.6875 -71 79.6875 -60.59375 L 79.6875 0 L 69.0625 0 L 66.25 -12.625 L 65.578125 -12.625 C 61.703125 -7.75 57.609375 -4.148438 53.296875 -1.828125 C 48.984375 0.492188 43.117188 1.65625 35.703125 1.65625 C 27.617188 1.65625 20.921875 -0.472656 15.609375 -4.734375 C 10.296875 -8.992188 7.640625 -15.660156 7.640625 -24.734375 C 7.640625 -33.585938 11.125 -40.421875 18.09375 -45.234375 C 25.070312 -50.054688 35.8125 -52.6875 50.3125 -53.125 L 65.421875 -53.625 L 65.421875 -58.9375 C 65.421875 -66.351562 63.8125 -71.5 60.59375 -74.375 C 57.382812 -77.257812 52.847656 -78.703125 46.984375 -78.703125 C 42.335938 -78.703125 37.910156 -78.007812 33.703125 -76.625 C 29.492188 -75.238281 25.566406 -73.660156 21.921875 -71.890625 L 17.4375 -82.84375 C 21.3125 -84.945312 25.90625 -86.742188 31.21875 -88.234375 C 36.53125 -89.734375 42.0625 -90.484375 47.8125 -90.484375 Z M 65.25 -43.5 L 52.140625 -43 C 41.066406 -42.5625 33.398438 -40.789062 29.140625 -37.6875 C 24.878906 -34.59375 22.75 -30.222656 22.75 -24.578125 C 22.75 -19.585938 24.269531 -15.929688 27.3125 -13.609375 C 30.351562 -11.285156 34.253906 -10.125 39.015625 -10.125 C 46.429688 -10.125 52.65625 -12.195312 57.6875 -16.34375 C 62.726562 -20.5 65.25 -26.894531 65.25 -35.53125 Z M 65.25 -43.5 "/></g></g></g><g fill="#5b4b45" fill-opacity="1"><g transform="translate(2246.683374, 957.428441)"><g><path d="M 111.734375 -90.65625 C 121.804688 -90.65625 129.332031 -88.050781 134.3125 -82.84375 C 139.300781 -77.644531 141.796875 -69.34375 141.796875 -57.9375 L 141.796875 0 L 127.34375 0 L 127.34375 -57.28125 C 127.34375 -71.332031 121.3125 -78.359375 109.25 -78.359375 C 100.613281 -78.359375 94.441406 -75.867188 90.734375 -70.890625 C 87.023438 -65.910156 85.171875 -58.660156 85.171875 -49.140625 L 85.171875 0 L 70.734375 0 L 70.734375 -57.28125 C 70.734375 -71.332031 64.644531 -78.359375 52.46875 -78.359375 C 43.5 -78.359375 37.296875 -75.59375 33.859375 -70.0625 C 30.429688 -64.53125 28.71875 -56.5625 28.71875 -46.15625 L 28.71875 0 L 14.109375 0 L 14.109375 -89 L 25.90625 -89 L 28.0625 -76.875 L 28.890625 -76.875 C 31.660156 -81.519531 35.394531 -84.976562 40.09375 -87.25 C 44.800781 -89.519531 49.8125 -90.65625 55.125 -90.65625 C 69.070312 -90.65625 78.144531 -85.671875 82.34375 -75.703125 L 83.1875 -75.703125 C 86.175781 -80.796875 90.210938 -84.5625 95.296875 -87 C 100.390625 -89.4375 105.867188 -90.65625 111.734375 -90.65625 Z M 111.734375 -90.65625 "/></g></g></g><g fill="#5b4b45" fill-opacity="1"><g transform="translate(2401.911753, 957.428441)"><g><path d="M 28.71875 0 L 14.109375 0 L 14.109375 -89 L 28.71875 -89 Z M 44.828125 -127.1875 L 44.828125 -125.515625 C 43.390625 -123.523438 41.3125 -120.953125 38.59375 -117.796875 C 35.882812 -114.640625 32.953125 -111.484375 29.796875 -108.328125 C 26.640625 -105.179688 23.734375 -102.609375 21.078125 -100.609375 L 11.453125 -100.609375 L 11.453125 -102.609375 C 13.003906 -104.597656 14.773438 -107.054688 16.765625 -109.984375 C 18.753906 -112.921875 20.691406 -115.910156 22.578125 -118.953125 C 24.460938 -122.003906 26.015625 -124.75 27.234375 -127.1875 Z M 44.828125 -127.1875 "/></g></g></g><g fill="#5b4b45" fill-opacity="1"><g transform="translate(2444.744788, 957.428441)"><g><path d="M 28.71875 0 L 14.109375 0 L 14.109375 -126.1875 L 28.71875 -126.1875 Z M 28.71875 0 "/></g></g></g><g fill="#5b4b45" fill-opacity="1"><g transform="translate(2487.577823, 957.428441)"><g><path d="M 21.578125 -122.359375 C 23.796875 -122.359375 25.757812 -121.609375 27.46875 -120.109375 C 29.1875 -118.617188 30.046875 -116.269531 30.046875 -113.0625 C 30.046875 -109.851562 29.1875 -107.5 27.46875 -106 C 25.757812 -104.507812 23.796875 -103.765625 21.578125 -103.765625 C 19.148438 -103.765625 17.101562 -104.507812 15.4375 -106 C 13.78125 -107.5 12.953125 -109.851562 12.953125 -113.0625 C 12.953125 -116.269531 13.78125 -118.617188 15.4375 -120.109375 C 17.101562 -121.609375 19.148438 -122.359375 21.578125 -122.359375 Z M 28.71875 -89 L 28.71875 0 L 14.109375 0 L 14.109375 -89 Z M 28.71875 -89 "/></g></g></g><g fill="#5b4b45" fill-opacity="1"><g transform="translate(2530.410857, 957.428441)"><g><path d="M 47.8125 -90.484375 C 58.664062 -90.484375 66.691406 -88.101562 71.890625 -83.34375 C 77.085938 -78.582031 79.6875 -71 79.6875 -60.59375 L 79.6875 0 L 69.0625 0 L 66.25 -12.625 L 65.578125 -12.625 C 61.703125 -7.75 57.609375 -4.148438 53.296875 -1.828125 C 48.984375 0.492188 43.117188 1.65625 35.703125 1.65625 C 27.617188 1.65625 20.921875 -0.472656 15.609375 -4.734375 C 10.296875 -8.992188 7.640625 -15.660156 7.640625 -24.734375 C 7.640625 -33.585938 11.125 -40.421875 18.09375 -45.234375 C 25.070312 -50.054688 35.8125 -52.6875 50.3125 -53.125 L 65.421875 -53.625 L 65.421875 -58.9375 C 65.421875 -66.351562 63.8125 -71.5 60.59375 -74.375 C 57.382812 -77.257812 52.847656 -78.703125 46.984375 -78.703125 C 42.335938 -78.703125 37.910156 -78.007812 33.703125 -76.625 C 29.492188 -75.238281 25.566406 -73.660156 21.921875 -71.890625 L 17.4375 -82.84375 C 21.3125 -84.945312 25.90625 -86.742188 31.21875 -88.234375 C 36.53125 -89.734375 42.0625 -90.484375 47.8125 -90.484375 Z M 65.25 -43.5 L 52.140625 -43 C 41.066406 -42.5625 33.398438 -40.789062 29.140625 -37.6875 C 24.878906 -34.59375 22.75 -30.222656 22.75 -24.578125 C 22.75 -19.585938 24.269531 -15.929688 27.3125 -13.609375 C 30.351562 -11.285156 34.253906 -10.125 39.015625 -10.125 C 46.429688 -10.125 52.65625 -12.195312 57.6875 -16.34375 C 62.726562 -20.5 65.25 -26.894531 65.25 -35.53125 Z M 65.25 -43.5 "/></g></g></g><g fill="#5b4b45" fill-opacity="1"><g transform="translate(2623.547919, 957.428441)"><g><path d="M 3.488281 26.066406 L 9.464844 31.378906 C 22.746094 22.578125 31.046875 6.808594 31.046875 -6.476562 C 31.046875 -12.617188 26.230469 -17.597656 19.757812 -17.597656 C 13.945312 -17.597656 8.964844 -11.953125 8.964844 -6.476562 C 13.117188 -4.152344 14.445312 -0.664062 14.445312 3.984375 C 14.445312 10.957031 9.628906 19.425781 3.488281 26.066406 Z M 3.488281 26.066406 "/></g></g></g><g fill="#5b4b45" fill-opacity="1"><g transform="translate(2664.22269, 957.428441)"><g/></g></g><g fill="#5b4b45" fill-opacity="1"><g transform="translate(2701.411113, 957.428441)"><g><path d="M 82.34375 0 L 16.109375 0 L 16.109375 -118.546875 L 82.34375 -118.546875 L 82.34375 -105.4375 L 31.046875 -105.4375 L 31.046875 -68.40625 L 79.359375 -68.40625 L 79.359375 -55.453125 L 31.046875 -55.453125 L 31.046875 -13.109375 L 82.34375 -13.109375 Z M 82.34375 0 "/></g></g></g><g fill="#5b4b45" fill-opacity="1"><g transform="translate(2793.71805, 957.428441)"><g><path d="M 56.953125 -90.65625 C 67.578125 -90.65625 75.597656 -88.050781 81.015625 -82.84375 C 86.441406 -77.644531 89.15625 -69.34375 89.15625 -57.9375 L 89.15625 0 L 74.71875 0 L 74.71875 -56.953125 C 74.71875 -71.222656 68.078125 -78.359375 54.796875 -78.359375 C 44.941406 -78.359375 38.128906 -75.59375 34.359375 -70.0625 C 30.597656 -64.53125 28.71875 -56.5625 28.71875 -46.15625 L 28.71875 0 L 14.109375 0 L 14.109375 -89 L 25.90625 -89 L 28.0625 -76.875 L 28.890625 -76.875 C 31.765625 -81.519531 35.75 -84.976562 40.84375 -87.25 C 45.9375 -89.519531 51.304688 -90.65625 56.953125 -90.65625 Z M 56.953125 -90.65625 "/></g></g></g><g fill="#5b4b45" fill-opacity="1"><g transform="translate(2896.318261, 957.428441)"><g><path d="M 45.65625 1.65625 C 34.59375 1.65625 25.738281 -2.1875 19.09375 -9.875 C 12.445312 -17.570312 9.125 -29.054688 9.125 -44.328125 C 9.125 -59.609375 12.472656 -71.148438 19.171875 -78.953125 C 25.867188 -86.753906 34.753906 -90.65625 45.828125 -90.65625 C 52.691406 -90.65625 58.304688 -89.378906 62.671875 -86.828125 C 67.046875 -84.285156 70.617188 -81.1875 73.390625 -77.53125 L 74.375 -77.53125 C 74.15625 -78.96875 73.9375 -81.097656 73.71875 -83.921875 C 73.5 -86.742188 73.390625 -88.988281 73.390625 -90.65625 L 73.390625 -126.1875 L 88 -126.1875 L 88 0 L 76.203125 0 L 74.046875 -11.953125 L 73.390625 -11.953125 C 70.734375 -8.191406 67.191406 -4.984375 62.765625 -2.328125 C 58.335938 0.328125 52.632812 1.65625 45.65625 1.65625 Z M 47.984375 -10.453125 C 57.390625 -10.453125 64 -13.023438 67.8125 -18.171875 C 71.632812 -23.328125 73.546875 -31.109375 73.546875 -41.515625 L 73.546875 -44.171875 C 73.546875 -55.234375 71.71875 -63.722656 68.0625 -69.640625 C 64.414062 -75.566406 57.664062 -78.53125 47.8125 -78.53125 C 39.957031 -78.53125 34.0625 -75.398438 30.125 -69.140625 C 26.195312 -62.890625 24.234375 -54.507812 24.234375 -44 C 24.234375 -33.375 26.195312 -25.125 30.125 -19.25 C 34.0625 -13.382812 40.015625 -10.453125 47.984375 -10.453125 Z M 47.984375 -10.453125 "/></g></g></g><g fill="#5b4b45" fill-opacity="1"><g transform="translate(2998.420242, 957.428441)"><g><path d="M 91.484375 -44.65625 C 91.484375 -29.9375 87.742188 -18.535156 80.265625 -10.453125 C 72.796875 -2.378906 62.695312 1.65625 49.96875 1.65625 C 42.113281 1.65625 35.113281 -0.140625 28.96875 -3.734375 C 22.820312 -7.328125 17.976562 -12.582031 14.4375 -19.5 C 10.894531 -26.425781 9.125 -34.8125 9.125 -44.65625 C 9.125 -59.382812 12.804688 -70.734375 20.171875 -78.703125 C 27.535156 -86.671875 37.632812 -90.65625 50.46875 -90.65625 C 58.4375 -90.65625 65.519531 -88.851562 71.71875 -85.25 C 77.914062 -81.65625 82.757812 -76.453125 86.25 -69.640625 C 89.738281 -62.835938 91.484375 -54.507812 91.484375 -44.65625 Z M 24.234375 -44.65625 C 24.234375 -34.144531 26.304688 -25.816406 30.453125 -19.671875 C 34.609375 -13.523438 41.226562 -10.453125 50.3125 -10.453125 C 59.269531 -10.453125 65.851562 -13.523438 70.0625 -19.671875 C 74.269531 -25.816406 76.375 -34.144531 76.375 -44.65625 C 76.375 -55.175781 74.269531 -63.421875 70.0625 -69.390625 C 65.851562 -75.367188 59.210938 -78.359375 50.140625 -78.359375 C 41.066406 -78.359375 34.476562 -75.367188 30.375 -69.390625 C 26.28125 -63.421875 24.234375 -55.175781 24.234375 -44.65625 Z M 24.234375 -44.65625 "/></g></g></g><g fill="#5b4b45" fill-opacity="1"><g transform="translate(3098.862189, 957.428441)"><g><path d="M 49.8125 1.65625 C 41.84375 1.65625 34.8125 0.0507812 28.71875 -3.15625 C 22.632812 -6.363281 17.847656 -11.34375 14.359375 -18.09375 C 10.867188 -24.84375 9.125 -33.476562 9.125 -44 C 9.125 -54.957031 10.921875 -63.863281 14.515625 -70.71875 C 18.117188 -77.582031 23.070312 -82.617188 29.375 -85.828125 C 35.6875 -89.046875 42.832031 -90.65625 50.8125 -90.65625 C 55.238281 -90.65625 59.582031 -90.179688 63.84375 -89.234375 C 68.101562 -88.296875 71.5625 -87.164062 74.21875 -85.84375 L 69.734375 -73.71875 C 67.078125 -74.71875 63.976562 -75.660156 60.4375 -76.546875 C 56.894531 -77.429688 53.570312 -77.875 50.46875 -77.875 C 32.976562 -77.875 24.234375 -66.640625 24.234375 -44.171875 C 24.234375 -33.429688 26.363281 -25.207031 30.625 -19.5 C 34.894531 -13.800781 41.234375 -10.953125 49.640625 -10.953125 C 54.398438 -10.953125 58.660156 -11.453125 62.421875 -12.453125 C 66.191406 -13.453125 69.625 -14.671875 72.71875 -16.109375 L 72.71875 -3.15625 C 69.726562 -1.601562 66.4375 -0.414062 62.84375 0.40625 C 59.25 1.238281 54.90625 1.65625 49.8125 1.65625 Z M 49.8125 1.65625 "/></g></g></g><g fill="#5b4b45" fill-opacity="1"><g transform="translate(3178.551512, 957.428441)"><g><path d="M 55.625 -90.65625 C 57.28125 -90.65625 59.046875 -90.570312 60.921875 -90.40625 C 62.804688 -90.238281 64.523438 -89.988281 66.078125 -89.65625 L 64.25 -76.203125 C 62.8125 -76.535156 61.207031 -76.8125 59.4375 -77.03125 C 57.664062 -77.257812 56.0625 -77.375 54.625 -77.375 C 50.082031 -77.375 45.816406 -76.128906 41.828125 -73.640625 C 37.847656 -71.148438 34.664062 -67.660156 32.28125 -63.171875 C 29.90625 -58.691406 28.71875 -53.460938 28.71875 -47.484375 L 28.71875 0 L 14.109375 0 L 14.109375 -89 L 26.0625 -89 L 27.734375 -72.71875 L 28.390625 -72.71875 C 31.160156 -77.59375 34.84375 -81.800781 39.4375 -85.34375 C 44.03125 -88.882812 49.425781 -90.65625 55.625 -90.65625 Z M 55.625 -90.65625 "/></g></g></g><g fill="#5b4b45" fill-opacity="1"><g transform="translate(3247.117547, 957.428441)"><g><path d="M 21.578125 -122.359375 C 23.796875 -122.359375 25.757812 -121.609375 27.46875 -120.109375 C 29.1875 -118.617188 30.046875 -116.269531 30.046875 -113.0625 C 30.046875 -109.851562 29.1875 -107.5 27.46875 -106 C 25.757812 -104.507812 23.796875 -103.765625 21.578125 -103.765625 C 19.148438 -103.765625 17.101562 -104.507812 15.4375 -106 C 13.78125 -107.5 12.953125 -109.851562 12.953125 -113.0625 C 12.953125 -116.269531 13.78125 -118.617188 15.4375 -120.109375 C 17.101562 -121.609375 19.148438 -122.359375 21.578125 -122.359375 Z M 28.71875 -89 L 28.71875 0 L 14.109375 0 L 14.109375 -89 Z M 28.71875 -89 "/></g></g></g><g fill="#5b4b45" fill-opacity="1"><g transform="translate(3289.950673, 957.428441)"><g><path d="M 56.953125 -90.65625 C 67.578125 -90.65625 75.597656 -88.050781 81.015625 -82.84375 C 86.441406 -77.644531 89.15625 -69.34375 89.15625 -57.9375 L 89.15625 0 L 74.71875 0 L 74.71875 -56.953125 C 74.71875 -71.222656 68.078125 -78.359375 54.796875 -78.359375 C 44.941406 -78.359375 38.128906 -75.59375 34.359375 -70.0625 C 30.597656 -64.53125 28.71875 -56.5625 28.71875 -46.15625 L 28.71875 0 L 14.109375 0 L 14.109375 -89 L 25.90625 -89 L 28.0625 -76.875 L 28.890625 -76.875 C 31.765625 -81.519531 35.75 -84.976562 40.84375 -87.25 C 45.9375 -89.519531 51.304688 -90.65625 56.953125 -90.65625 Z M 56.953125 -90.65625 "/></g></g></g><g fill="#5b4b45" fill-opacity="1"><g transform="translate(3392.550884, 957.428441)"><g><path d="M 91.484375 -44.65625 C 91.484375 -29.9375 87.742188 -18.535156 80.265625 -10.453125 C 72.796875 -2.378906 62.695312 1.65625 49.96875 1.65625 C 42.113281 1.65625 35.113281 -0.140625 28.96875 -3.734375 C 22.820312 -7.328125 17.976562 -12.582031 14.4375 -19.5 C 10.894531 -26.425781 9.125 -34.8125 9.125 -44.65625 C 9.125 -59.382812 12.804688 -70.734375 20.171875 -78.703125 C 27.535156 -86.671875 37.632812 -90.65625 50.46875 -90.65625 C 58.4375 -90.65625 65.519531 -88.851562 71.71875 -85.25 C 77.914062 -81.65625 82.757812 -76.453125 86.25 -69.640625 C 89.738281 -62.835938 91.484375 -54.507812 91.484375 -44.65625 Z M 24.234375 -44.65625 C 24.234375 -34.144531 26.304688 -25.816406 30.453125 -19.671875 C 34.609375 -13.523438 41.226562 -10.453125 50.3125 -10.453125 C 59.269531 -10.453125 65.851562 -13.523438 70.0625 -19.671875 C 74.269531 -25.816406 76.375 -34.144531 76.375 -44.65625 C 76.375 -55.175781 74.269531 -63.421875 70.0625 -69.390625 C 65.851562 -75.367188 59.210938 -78.359375 50.140625 -78.359375 C 41.066406 -78.359375 34.476562 -75.367188 30.375 -69.390625 C 26.28125 -63.421875 24.234375 -55.175781 24.234375 -44.65625 Z M 24.234375 -44.65625 "/></g></g></g><g fill="#5b4b45" fill-opacity="1"><g transform="translate(3492.992647, 957.428441)"><g><path d="M 28.71875 0 L 14.109375 0 L 14.109375 -126.1875 L 28.71875 -126.1875 Z M 28.71875 0 "/></g></g></g><g fill="#5b4b45" fill-opacity="1"><g transform="translate(3535.825774, 957.428441)"><g><path d="M 91.484375 -44.65625 C 91.484375 -29.9375 87.742188 -18.535156 80.265625 -10.453125 C 72.796875 -2.378906 62.695312 1.65625 49.96875 1.65625 C 42.113281 1.65625 35.113281 -0.140625 28.96875 -3.734375 C 22.820312 -7.328125 17.976562 -12.582031 14.4375 -19.5 C 10.894531 -26.425781 9.125 -34.8125 9.125 -44.65625 C 9.125 -59.382812 12.804688 -70.734375 20.171875 -78.703125 C 27.535156 -86.671875 37.632812 -90.65625 50.46875 -90.65625 C 58.4375 -90.65625 65.519531 -88.851562 71.71875 -85.25 C 77.914062 -81.65625 82.757812 -76.453125 86.25 -69.640625 C 89.738281 -62.835938 91.484375 -54.507812 91.484375 -44.65625 Z M 24.234375 -44.65625 C 24.234375 -34.144531 26.304688 -25.816406 30.453125 -19.671875 C 34.609375 -13.523438 41.226562 -10.453125 50.3125 -10.453125 C 59.269531 -10.453125 65.851562 -13.523438 70.0625 -19.671875 C 74.269531 -25.816406 76.375 -34.144531 76.375 -44.65625 C 76.375 -55.175781 74.269531 -63.421875 70.0625 -69.390625 C 65.851562 -75.367188 59.210938 -78.359375 50.140625 -78.359375 C 41.066406 -78.359375 34.476562 -75.367188 30.375 -69.390625 C 26.28125 -63.421875 24.234375 -55.175781 24.234375 -44.65625 Z M 24.234375 -44.65625 "/></g></g></g><g fill="#5b4b45" fill-opacity="1"><g transform="translate(3636.267537, 957.428441)"><g><path d="M 45.65625 -90.65625 C 51.519531 -90.65625 56.804688 -89.546875 61.515625 -87.328125 C 66.222656 -85.117188 70.234375 -81.742188 73.546875 -77.203125 L 74.375 -77.203125 L 76.375 -89 L 88 -89 L 88 1.5 C 88 14.226562 84.757812 23.800781 78.28125 30.21875 C 71.8125 36.632812 61.769531 39.84375 48.15625 39.84375 C 35.09375 39.84375 24.410156 37.960938 16.109375 34.203125 L 16.109375 20.75 C 24.847656 25.40625 35.804688 27.734375 48.984375 27.734375 C 56.617188 27.734375 62.617188 25.488281 66.984375 21 C 71.359375 16.519531 73.546875 10.40625 73.546875 2.65625 L 73.546875 -0.828125 C 73.546875 -2.160156 73.601562 -4.070312 73.71875 -6.5625 C 73.832031 -9.050781 73.941406 -10.789062 74.046875 -11.78125 L 73.390625 -11.78125 C 67.410156 -2.820312 58.222656 1.65625 45.828125 1.65625 C 34.316406 1.65625 25.320312 -2.378906 18.84375 -10.453125 C 12.363281 -18.535156 9.125 -29.828125 9.125 -44.328125 C 9.125 -58.492188 12.363281 -69.753906 18.84375 -78.109375 C 25.320312 -86.472656 34.257812 -90.65625 45.65625 -90.65625 Z M 47.65625 -78.359375 C 40.238281 -78.359375 34.476562 -75.394531 30.375 -69.46875 C 26.28125 -63.550781 24.234375 -55.117188 24.234375 -44.171875 C 24.234375 -33.210938 26.222656 -24.828125 30.203125 -19.015625 C 34.191406 -13.203125 40.117188 -10.296875 47.984375 -10.296875 C 56.953125 -10.296875 63.484375 -12.703125 67.578125 -17.515625 C 71.671875 -22.328125 73.71875 -30.101562 73.71875 -40.84375 L 73.71875 -44.328125 C 73.71875 -56.390625 71.613281 -65.078125 67.40625 -70.390625 C 63.195312 -75.703125 56.613281 -78.359375 47.65625 -78.359375 Z M 47.65625 -78.359375 "/></g></g></g><g fill="#5b4b45" fill-opacity="1"><g transform="translate(3738.369518, 957.428441)"><g><path d="M 21.578125 -122.359375 C 23.796875 -122.359375 25.757812 -121.609375 27.46875 -120.109375 C 29.1875 -118.617188 30.046875 -116.269531 30.046875 -113.0625 C 30.046875 -109.851562 29.1875 -107.5 27.46875 -106 C 25.757812 -104.507812 23.796875 -103.765625 21.578125 -103.765625 C 19.148438 -103.765625 17.101562 -104.507812 15.4375 -106 C 13.78125 -107.5 12.953125 -109.851562 12.953125 -113.0625 C 12.953125 -116.269531 13.78125 -118.617188 15.4375 -120.109375 C 17.101562 -121.609375 19.148438 -122.359375 21.578125 -122.359375 Z M 28.71875 -89 L 28.71875 0 L 14.109375 0 L 14.109375 -89 Z M 28.71875 -89 "/></g></g></g><g fill="#5b4b45" fill-opacity="1"><g transform="translate(3781.202644, 957.428441)"><g><path d="M 47.8125 -90.484375 C 58.664062 -90.484375 66.691406 -88.101562 71.890625 -83.34375 C 77.085938 -78.582031 79.6875 -71 79.6875 -60.59375 L 79.6875 0 L 69.0625 0 L 66.25 -12.625 L 65.578125 -12.625 C 61.703125 -7.75 57.609375 -4.148438 53.296875 -1.828125 C 48.984375 0.492188 43.117188 1.65625 35.703125 1.65625 C 27.617188 1.65625 20.921875 -0.472656 15.609375 -4.734375 C 10.296875 -8.992188 7.640625 -15.660156 7.640625 -24.734375 C 7.640625 -33.585938 11.125 -40.421875 18.09375 -45.234375 C 25.070312 -50.054688 35.8125 -52.6875 50.3125 -53.125 L 65.421875 -53.625 L 65.421875 -58.9375 C 65.421875 -66.351562 63.8125 -71.5 60.59375 -74.375 C 57.382812 -77.257812 52.847656 -78.703125 46.984375 -78.703125 C 42.335938 -78.703125 37.910156 -78.007812 33.703125 -76.625 C 29.492188 -75.238281 25.566406 -73.660156 21.921875 -71.890625 L 17.4375 -82.84375 C 21.3125 -84.945312 25.90625 -86.742188 31.21875 -88.234375 C 36.53125 -89.734375 42.0625 -90.484375 47.8125 -90.484375 Z M 65.25 -43.5 L 52.140625 -43 C 41.066406 -42.5625 33.398438 -40.789062 29.140625 -37.6875 C 24.878906 -34.59375 22.75 -30.222656 22.75 -24.578125 C 22.75 -19.585938 24.269531 -15.929688 27.3125 -13.609375 C 30.351562 -11.285156 34.253906 -10.125 39.015625 -10.125 C 46.429688 -10.125 52.65625 -12.195312 57.6875 -16.34375 C 62.726562 -20.5 65.25 -26.894531 65.25 -35.53125 Z M 65.25 -43.5 "/></g></g></g><g fill="#5b4b45" fill-opacity="1"><g transform="translate(3874.339611, 957.428441)"><g/></g></g><g fill="#5b4b45" fill-opacity="1"><g transform="translate(3911.527982, 957.428441)"><g><path d="M 48.484375 -90.65625 C 56.003906 -90.65625 62.53125 -88.992188 68.0625 -85.671875 C 73.601562 -82.347656 77.835938 -77.671875 80.765625 -71.640625 C 83.703125 -65.609375 85.171875 -58.550781 85.171875 -50.46875 L 85.171875 -41.671875 L 24.234375 -41.671875 C 24.460938 -31.597656 27.035156 -23.929688 31.953125 -18.671875 C 36.878906 -13.421875 43.769531 -10.796875 52.625 -10.796875 C 58.269531 -10.796875 63.28125 -11.320312 67.65625 -12.375 C 72.03125 -13.425781 76.539062 -14.945312 81.1875 -16.9375 L 81.1875 -4.15625 C 76.644531 -2.15625 72.160156 -0.6875 67.734375 0.25 C 63.304688 1.1875 58.050781 1.65625 51.96875 1.65625 C 43.445312 1.65625 35.972656 -0.0546875 29.546875 -3.484375 C 23.128906 -6.921875 18.117188 -12.015625 14.515625 -18.765625 C 10.921875 -25.515625 9.125 -33.867188 9.125 -43.828125 C 9.125 -53.566406 10.753906 -61.921875 14.015625 -68.890625 C 17.285156 -75.867188 21.878906 -81.238281 27.796875 -85 C 33.722656 -88.769531 40.617188 -90.65625 48.484375 -90.65625 Z M 48.3125 -78.703125 C 41.34375 -78.703125 35.835938 -76.457031 31.796875 -71.96875 C 27.753906 -67.488281 25.347656 -61.265625 24.578125 -53.296875 L 69.90625 -53.296875 C 69.789062 -60.828125 68.015625 -66.941406 64.578125 -71.640625 C 61.148438 -76.347656 55.726562 -78.703125 48.3125 -78.703125 Z M 48.3125 -78.703125 "/></g></g></g><g fill="#5b4b45" fill-opacity="1"><g transform="translate(4005.162924, 957.428441)"><g/></g></g><g fill="#5b4b45" fill-opacity="1"><g transform="translate(4042.351296, 957.428441)"><g><path d="M 110.078125 0 L 92.640625 0 L 29.21875 -98.453125 L 28.5625 -98.453125 C 28.78125 -94.578125 29.054688 -89.757812 29.390625 -84 C 29.722656 -78.25 29.890625 -72.332031 29.890625 -66.25 L 29.890625 0 L 16.109375 0 L 16.109375 -118.546875 L 33.375 -118.546875 L 96.625 -20.421875 L 97.296875 -20.421875 C 97.179688 -22.191406 97.039062 -24.847656 96.875 -28.390625 C 96.707031 -31.929688 96.539062 -35.773438 96.375 -39.921875 C 96.207031 -44.078125 96.125 -47.984375 96.125 -51.640625 L 96.125 -118.546875 L 110.078125 -118.546875 Z M 110.078125 0 "/></g></g></g><g fill="#5b4b45" fill-opacity="1"><g transform="translate(4168.526148, 957.428441)"><g><path d="M 88.5 -89 L 88.5 0 L 76.546875 0 L 74.375 -11.78125 L 73.71875 -11.78125 C 70.84375 -7.132812 66.859375 -3.734375 61.765625 -1.578125 C 56.671875 0.578125 51.25 1.65625 45.5 1.65625 C 34.757812 1.65625 26.675781 -0.914062 21.25 -6.0625 C 15.820312 -11.207031 13.109375 -19.425781 13.109375 -30.71875 L 13.109375 -89 L 27.890625 -89 L 27.890625 -31.71875 C 27.890625 -17.539062 34.476562 -10.453125 47.65625 -10.453125 C 57.5 -10.453125 64.332031 -13.21875 68.15625 -18.75 C 71.976562 -24.289062 73.890625 -32.265625 73.890625 -42.671875 L 73.890625 -89 Z M 88.5 -89 "/></g></g></g><g fill="#5b4b45" fill-opacity="1"><g transform="translate(4271.126358, 957.428441)"><g><path d="M 43.828125 -10.296875 C 46.046875 -10.296875 48.316406 -10.460938 50.640625 -10.796875 C 52.960938 -11.128906 54.84375 -11.570312 56.28125 -12.125 L 56.28125 -1 C 54.726562 -0.21875 52.515625 0.414062 49.640625 0.90625 C 46.765625 1.40625 44 1.65625 41.34375 1.65625 C 36.695312 1.65625 32.40625 0.851562 28.46875 -0.75 C 24.539062 -2.351562 21.359375 -5.144531 18.921875 -9.125 C 16.492188 -13.113281 15.28125 -18.707031 15.28125 -25.90625 L 15.28125 -77.703125 L 2.65625 -77.703125 L 2.65625 -84.671875 L 15.4375 -90.484375 L 21.25 -109.421875 L 29.890625 -109.421875 L 29.890625 -89 L 55.625 -89 L 55.625 -77.703125 L 29.890625 -77.703125 L 29.890625 -26.234375 C 29.890625 -20.804688 31.1875 -16.789062 33.78125 -14.1875 C 36.382812 -11.59375 39.734375 -10.296875 43.828125 -10.296875 Z M 43.828125 -10.296875 "/></g></g></g><g fill="#5b4b45" fill-opacity="1"><g transform="translate(4331.05952, 957.428441)"><g><path d="M 55.625 -90.65625 C 57.28125 -90.65625 59.046875 -90.570312 60.921875 -90.40625 C 62.804688 -90.238281 64.523438 -89.988281 66.078125 -89.65625 L 64.25 -76.203125 C 62.8125 -76.535156 61.207031 -76.8125 59.4375 -77.03125 C 57.664062 -77.257812 56.0625 -77.375 54.625 -77.375 C 50.082031 -77.375 45.816406 -76.128906 41.828125 -73.640625 C 37.847656 -71.148438 34.664062 -67.660156 32.28125 -63.171875 C 29.90625 -58.691406 28.71875 -53.460938 28.71875 -47.484375 L 28.71875 0 L 14.109375 0 L 14.109375 -89 L 26.0625 -89 L 27.734375 -72.71875 L 28.390625 -72.71875 C 31.160156 -77.59375 34.84375 -81.800781 39.4375 -85.34375 C 44.03125 -88.882812 49.425781 -90.65625 55.625 -90.65625 Z M 55.625 -90.65625 "/></g></g></g><g fill="#5b4b45" fill-opacity="1"><g transform="translate(4399.625737, 957.428441)"><g><path d="M 21.578125 -122.359375 C 23.796875 -122.359375 25.757812 -121.609375 27.46875 -120.109375 C 29.1875 -118.617188 30.046875 -116.269531 30.046875 -113.0625 C 30.046875 -109.851562 29.1875 -107.5 27.46875 -106 C 25.757812 -104.507812 23.796875 -103.765625 21.578125 -103.765625 C 19.148438 -103.765625 17.101562 -104.507812 15.4375 -106 C 13.78125 -107.5 12.953125 -109.851562 12.953125 -113.0625 C 12.953125 -116.269531 13.78125 -118.617188 15.4375 -120.109375 C 17.101562 -121.609375 19.148438 -122.359375 21.578125 -122.359375 Z M 28.71875 -89 L 28.71875 0 L 14.109375 0 L 14.109375 -89 Z M 28.71875 -89 "/></g></g></g><g fill="#5b4b45" fill-opacity="1"><g transform="translate(4442.458864, 957.428441)"><g><path d="M 49.8125 1.65625 C 41.84375 1.65625 34.8125 0.0507812 28.71875 -3.15625 C 22.632812 -6.363281 17.847656 -11.34375 14.359375 -18.09375 C 10.867188 -24.84375 9.125 -33.476562 9.125 -44 C 9.125 -54.957031 10.921875 -63.863281 14.515625 -70.71875 C 18.117188 -77.582031 23.070312 -82.617188 29.375 -85.828125 C 35.6875 -89.046875 42.832031 -90.65625 50.8125 -90.65625 C 55.238281 -90.65625 59.582031 -90.179688 63.84375 -89.234375 C 68.101562 -88.296875 71.5625 -87.164062 74.21875 -85.84375 L 69.734375 -73.71875 C 67.078125 -74.71875 63.976562 -75.660156 60.4375 -76.546875 C 56.894531 -77.429688 53.570312 -77.875 50.46875 -77.875 C 32.976562 -77.875 24.234375 -66.640625 24.234375 -44.171875 C 24.234375 -33.429688 26.363281 -25.207031 30.625 -19.5 C 34.894531 -13.800781 41.234375 -10.953125 49.640625 -10.953125 C 54.398438 -10.953125 58.660156 -11.453125 62.421875 -12.453125 C 66.191406 -13.453125 69.625 -14.671875 72.71875 -16.109375 L 72.71875 -3.15625 C 69.726562 -1.601562 66.4375 -0.414062 62.84375 0.40625 C 59.25 1.238281 54.90625 1.65625 49.8125 1.65625 Z M 63.421875 23.078125 C 63.421875 28.390625 61.367188 32.507812 57.265625 35.4375 C 53.171875 38.375 47.03125 39.84375 38.84375 39.84375 C 35.300781 39.84375 32.535156 39.566406 30.546875 39.015625 L 30.546875 29.890625 C 31.535156 30.109375 32.859375 30.300781 34.515625 30.46875 C 36.179688 30.632812 37.789062 30.71875 39.34375 30.71875 C 43.320312 30.71875 46.363281 30.191406 48.46875 29.140625 C 50.570312 28.085938 51.625 26.175781 51.625 23.40625 C 51.625 20.53125 50.15625 18.425781 47.21875 17.09375 C 44.289062 15.769531 40.722656 14.832031 36.515625 14.28125 L 43.65625 0 L 53.296875 0 L 48.96875 8.796875 C 52.957031 9.679688 56.363281 11.226562 59.1875 13.4375 C 62.007812 15.65625 63.421875 18.867188 63.421875 23.078125 Z M 63.421875 23.078125 "/></g></g></g><g fill="#5b4b45" fill-opacity="1"><g transform="translate(4522.148187, 957.428441)"><g><path d="M 47.8125 -90.484375 C 58.664062 -90.484375 66.691406 -88.101562 71.890625 -83.34375 C 77.085938 -78.582031 79.6875 -71 79.6875 -60.59375 L 79.6875 0 L 69.0625 0 L 66.25 -12.625 L 65.578125 -12.625 C 61.703125 -7.75 57.609375 -4.148438 53.296875 -1.828125 C 48.984375 0.492188 43.117188 1.65625 35.703125 1.65625 C 27.617188 1.65625 20.921875 -0.472656 15.609375 -4.734375 C 10.296875 -8.992188 7.640625 -15.660156 7.640625 -24.734375 C 7.640625 -33.585938 11.125 -40.421875 18.09375 -45.234375 C 25.070312 -50.054688 35.8125 -52.6875 50.3125 -53.125 L 65.421875 -53.625 L 65.421875 -58.9375 C 65.421875 -66.351562 63.8125 -71.5 60.59375 -74.375 C 57.382812 -77.257812 52.847656 -78.703125 46.984375 -78.703125 C 42.335938 -78.703125 37.910156 -78.007812 33.703125 -76.625 C 29.492188 -75.238281 25.566406 -73.660156 21.921875 -71.890625 L 17.4375 -82.84375 C 21.3125 -84.945312 25.90625 -86.742188 31.21875 -88.234375 C 36.53125 -89.734375 42.0625 -90.484375 47.8125 -90.484375 Z M 65.25 -43.5 L 52.140625 -43 C 41.066406 -42.5625 33.398438 -40.789062 29.140625 -37.6875 C 24.878906 -34.59375 22.75 -30.222656 22.75 -24.578125 C 22.75 -19.585938 24.269531 -15.929688 27.3125 -13.609375 C 30.351562 -11.285156 34.253906 -10.125 39.015625 -10.125 C 46.429688 -10.125 52.65625 -12.195312 57.6875 -16.34375 C 62.726562 -20.5 65.25 -26.894531 65.25 -35.53125 Z M 16.109375 -100.609375 C 16.773438 -107.140625 18.679688 -112.3125 21.828125 -116.125 C 24.984375 -119.945312 29.164062 -121.859375 34.375 -121.859375 C 37.695312 -121.859375 40.820312 -121.054688 43.75 -119.453125 C 46.6875 -117.847656 49.484375 -116.269531 52.140625 -114.71875 C 54.796875 -113.175781 57.285156 -112.40625 59.609375 -112.40625 C 62.148438 -112.40625 64.113281 -113.207031 65.5 -114.8125 C 66.882812 -116.414062 67.960938 -118.820312 68.734375 -122.03125 L 77.046875 -122.03125 C 76.378906 -115.5 74.492188 -110.320312 71.390625 -106.5 C 68.296875 -102.6875 64.148438 -100.78125 58.953125 -100.78125 C 55.847656 -100.78125 52.828125 -101.554688 49.890625 -103.109375 C 46.960938 -104.660156 44.140625 -106.238281 41.421875 -107.84375 C 38.710938 -109.445312 36.140625 -110.25 33.703125 -110.25 C 31.046875 -110.25 29.050781 -109.445312 27.71875 -107.84375 C 26.394531 -106.238281 25.347656 -103.828125 24.578125 -100.609375 Z M 16.109375 -100.609375 "/></g></g></g><g fill="#5b4b45" fill-opacity="1"><g transform="translate(4615.285142, 957.428441)"><g><path d="M 91.484375 -44.65625 C 91.484375 -29.9375 87.742188 -18.535156 80.265625 -10.453125 C 72.796875 -2.378906 62.695312 1.65625 49.96875 1.65625 C 42.113281 1.65625 35.113281 -0.140625 28.96875 -3.734375 C 22.820312 -7.328125 17.976562 -12.582031 14.4375 -19.5 C 10.894531 -26.425781 9.125 -34.8125 9.125 -44.65625 C 9.125 -59.382812 12.804688 -70.734375 20.171875 -78.703125 C 27.535156 -86.671875 37.632812 -90.65625 50.46875 -90.65625 C 58.4375 -90.65625 65.519531 -88.851562 71.71875 -85.25 C 77.914062 -81.65625 82.757812 -76.453125 86.25 -69.640625 C 89.738281 -62.835938 91.484375 -54.507812 91.484375 -44.65625 Z M 24.234375 -44.65625 C 24.234375 -34.144531 26.304688 -25.816406 30.453125 -19.671875 C 34.609375 -13.523438 41.226562 -10.453125 50.3125 -10.453125 C 59.269531 -10.453125 65.851562 -13.523438 70.0625 -19.671875 C 74.269531 -25.816406 76.375 -34.144531 76.375 -44.65625 C 76.375 -55.175781 74.269531 -63.421875 70.0625 -69.390625 C 65.851562 -75.367188 59.210938 -78.359375 50.140625 -78.359375 C 41.066406 -78.359375 34.476562 -75.367188 30.375 -69.390625 C 26.28125 -63.421875 24.234375 -55.175781 24.234375 -44.65625 Z M 24.234375 -44.65625 "/></g></g></g></svg>